STARTFONT 2.1
FONT -Misc-Tamsynu-Medium-R-Normal--14-101-100-100-C-70-ISO10646-1
SIZE 14 100 100
FONTBOUNDINGBOX 18 14 -1 -3
STARTPROPERTIES 25
FONTNAME_REGISTRY ""
FOUNDRY "Misc"
FAMILY_NAME "Tamsynu"
WEIGHT_NAME "Medium"
SLANT "R"
SETWIDTH_NAME "Normal"
ADD_STYLE_NAME ""
PIXEL_SIZE 14
POINT_SIZE 101
RESOLUTION_X 100
RESOLUTION_Y 100
SPACING "C"
AVERAGE_WIDTH 70
CHARSET_REGISTRY "ISO10646"
CHARSET_ENCODING "1"
COPYRIGHT "(c) 2012 Scott Fial"
CAP_HEIGHT 8
X_HEIGHT 6
FONT_VERSION "1.9"
WEIGHT 10
QUAD_WIDTH 7
DEFAULT_CHAR 0
FONT_DESCENT 3
FONT_ASCENT 11
_GBDFED_INFO "Edited with gbdfed 1.6."
ENDPROPERTIES
CHARS 545
STARTCHAR U+0000
ENCODING 0
SWIDTH 925 0
DWIDTH 18 0
BBX 18 14 -1 -3
BITMAP
000000
000000
000000
3E0000
220000
220000
220000
220000
220000
220000
3E0000
000000
000000
000000
ENDCHAR
STARTCHAR U+25C6
ENCODING 1
SWIDTH 925 0
DWIDTH 18 0
BBX 18 14 -1 -3
BITMAP
000000
000000
000000
000000
000000
000000
000000
000000
000000
000000
000000
000000
000000
000000
ENDCHAR
STARTCHAR U+2592
ENCODING 2
SWIDTH 925 0
DWIDTH 18 0
BBX 18 14 -1 -3
BITMAP
490000
120000
240000
490000
120000
240000
490000
120000
240000
490000
120000
240000
490000
120000
ENDCHAR
STARTCHAR U+2409
ENCODING 3
SWIDTH 925 0
DWIDTH 18 0
BBX 18 14 -1 -3
BITMAP
000000
000000
000000
000000
000000
000000
000000
000000
000000
000000
000000
000000
000000
000000
ENDCHAR
STARTCHAR U+240C
ENCODING 4
SWIDTH 925 0
DWIDTH 18 0
BBX 18 14 -1 -3
BITMAP
000000
000000
000000
000000
000000
000000
000000
000000
000000
000000
000000
000000
000000
000000
ENDCHAR
STARTCHAR U+240D
ENCODING 5
SWIDTH 925 0
DWIDTH 18 0
BBX 18 14 -1 -3
BITMAP
000000
000000
000000
000000
000000
000000
000000
000000
000000
000000
000000
000000
000000
000000
ENDCHAR
STARTCHAR U+240A
ENCODING 6
SWIDTH 925 0
DWIDTH 18 0
BBX 18 14 -1 -3
BITMAP
000000
000000
000000
000000
000000
000000
000000
000000
000000
000000
000000
000000
000000
000000
ENDCHAR
STARTCHAR U+00B0
ENCODING 7
SWIDTH 925 0
DWIDTH 18 0
BBX 18 14 -1 -3
BITMAP
000000
000000
000000
000000
000000
000000
000000
000000
000000
000000
000000
000000
000000
000000
ENDCHAR
STARTCHAR U+00B1
ENCODING 8
SWIDTH 925 0
DWIDTH 18 0
BBX 18 14 -1 -3
BITMAP
000000
000000
000000
000000
000000
000000
000000
000000
000000
000000
000000
000000
000000
000000
ENDCHAR
STARTCHAR U+09E8
ENCODING 9
SWIDTH 925 0
DWIDTH 18 0
BBX 18 14 -1 -3
BITMAP
000000
000000
000000
000000
000000
000000
000000
000000
000000
000000
000000
000000
000000
000000
ENDCHAR
STARTCHAR U+09E9
ENCODING 10
SWIDTH 925 0
DWIDTH 18 0
BBX 18 14 -1 -3
BITMAP
000000
000000
000000
000000
000000
000000
000000
000000
000000
000000
000000
000000
000000
000000
ENDCHAR
STARTCHAR U+2518
ENCODING 11
SWIDTH 925 0
DWIDTH 18 0
BBX 18 14 -1 -3
BITMAP
080000
080000
080000
080000
080000
080000
080000
780000
000000
000000
000000
000000
000000
000000
ENDCHAR
STARTCHAR U+2510
ENCODING 12
SWIDTH 925 0
DWIDTH 18 0
BBX 18 14 -1 -3
BITMAP
000000
000000
000000
000000
000000
000000
000000
780000
080000
080000
080000
080000
080000
080000
ENDCHAR
STARTCHAR U+250C
ENCODING 13
SWIDTH 925 0
DWIDTH 18 0
BBX 18 14 -1 -3
BITMAP
000000
000000
000000
000000
000000
000000
000000
0F0000
080000
080000
080000
080000
080000
080000
ENDCHAR
STARTCHAR U+2514
ENCODING 14
SWIDTH 925 0
DWIDTH 18 0
BBX 18 14 -1 -3
BITMAP
080000
080000
080000
080000
080000
080000
080000
0F0000
000000
000000
000000
000000
000000
000000
ENDCHAR
STARTCHAR U+253C
ENCODING 15
SWIDTH 925 0
DWIDTH 18 0
BBX 18 14 -1 -3
BITMAP
080000
080000
080000
080000
080000
080000
080000
7F0000
080000
080000
080000
080000
080000
080000
ENDCHAR
STARTCHAR U+23BA
ENCODING 16
SWIDTH 925 0
DWIDTH 18 0
BBX 18 14 -1 -3
BITMAP
000000
000000
000000
000000
000000
000000
000000
000000
000000
000000
000000
000000
000000
000000
ENDCHAR
STARTCHAR U+23BB
ENCODING 17
SWIDTH 925 0
DWIDTH 18 0
BBX 18 14 -1 -3
BITMAP
000000
000000
000000
000000
000000
000000
000000
000000
000000
000000
000000
000000
000000
000000
ENDCHAR
STARTCHAR U+2500
ENCODING 18
SWIDTH 925 0
DWIDTH 18 0
BBX 18 14 -1 -3
BITMAP
000000
000000
000000
000000
000000
000000
000000
7F0000
000000
000000
000000
000000
000000
000000
ENDCHAR
STARTCHAR U+23BC
ENCODING 19
SWIDTH 925 0
DWIDTH 18 0
BBX 18 14 -1 -3
BITMAP
000000
000000
000000
000000
000000
000000
000000
000000
000000
000000
000000
000000
000000
000000
ENDCHAR
STARTCHAR U+23BD
ENCODING 20
SWIDTH 925 0
DWIDTH 18 0
BBX 18 14 -1 -3
BITMAP
000000
000000
000000
000000
000000
000000
000000
000000
000000
000000
000000
000000
000000
000000
ENDCHAR
STARTCHAR U+251C
ENCODING 21
SWIDTH 925 0
DWIDTH 18 0
BBX 18 14 -1 -3
BITMAP
080000
080000
080000
080000
080000
080000
080000
0F0000
080000
080000
080000
080000
080000
080000
ENDCHAR
STARTCHAR U+2524
ENCODING 22
SWIDTH 925 0
DWIDTH 18 0
BBX 18 14 -1 -3
BITMAP
080000
080000
080000
080000
080000
080000
080000
780000
080000
080000
080000
080000
080000
080000
ENDCHAR
STARTCHAR U+2534
ENCODING 23
SWIDTH 925 0
DWIDTH 18 0
BBX 18 14 -1 -3
BITMAP
080000
080000
080000
080000
080000
080000
080000
7F0000
000000
000000
000000
000000
000000
000000
ENDCHAR
STARTCHAR U+252C
ENCODING 24
SWIDTH 925 0
DWIDTH 18 0
BBX 18 14 -1 -3
BITMAP
000000
000000
000000
000000
000000
000000
000000
7F0000
080000
080000
080000
080000
080000
080000
ENDCHAR
STARTCHAR U+2502
ENCODING 25
SWIDTH 925 0
DWIDTH 18 0
BBX 18 14 -1 -3
BITMAP
080000
080000
080000
080000
080000
080000
080000
080000
080000
080000
080000
080000
080000
080000
ENDCHAR
STARTCHAR U+2264
ENCODING 26
SWIDTH 925 0
DWIDTH 18 0
BBX 18 14 -1 -3
BITMAP
000000
000000
000000
000000
000000
000000
000000
000000
000000
000000
000000
000000
000000
000000
ENDCHAR
STARTCHAR U+2265
ENCODING 27
SWIDTH 925 0
DWIDTH 18 0
BBX 18 14 -1 -3
BITMAP
000000
000000
000000
000000
000000
000000
000000
000000
000000
000000
000000
000000
000000
000000
ENDCHAR
STARTCHAR U+03C0
ENCODING 28
SWIDTH 925 0
DWIDTH 18 0
BBX 18 14 -1 -3
BITMAP
000000
000000
000000
000000
000000
000000
000000
000000
000000
000000
000000
000000
000000
000000
ENDCHAR
STARTCHAR U+2260
ENCODING 29
SWIDTH 925 0
DWIDTH 18 0
BBX 18 14 -1 -3
BITMAP
000000
000000
000000
000000
000000
000000
000000
000000
000000
000000
000000
000000
000000
000000
ENDCHAR
STARTCHAR U+00A3
ENCODING 30
SWIDTH 925 0
DWIDTH 18 0
BBX 18 14 -1 -3
BITMAP
000000
000000
000000
0C0000
100000
100000
3C0000
100000
100000
100000
3E0000
000000
000000
000000
ENDCHAR
STARTCHAR U+00B7
ENCODING 31
SWIDTH 925 0
DWIDTH 18 0
BBX 18 14 -1 -3
BITMAP
000000
000000
000000
000000
000000
000000
000000
000000
000000
000000
000000
000000
000000
000000
ENDCHAR
STARTCHAR U+0020
ENCODING 32
SWIDTH 925 0
DWIDTH 18 0
BBX 18 14 -1 -3
BITMAP
000000
000000
000000
000000
000000
000000
000000
000000
000000
000000
000000
000000
000000
000000
ENDCHAR
STARTCHAR U+0021
ENCODING 33
SWIDTH 925 0
DWIDTH 18 0
BBX 18 14 -1 -3
BITMAP
000000
000000
080000
080000
080000
080000
080000
000000
000000
080000
080000
000000
000000
000000
ENDCHAR
STARTCHAR U+0022
ENCODING 34
SWIDTH 925 0
DWIDTH 18 0
BBX 18 14 -1 -3
BITMAP
000000
000000
140000
140000
140000
140000
000000
000000
000000
000000
000000
000000
000000
000000
ENDCHAR
STARTCHAR U+0023
ENCODING 35
SWIDTH 925 0
DWIDTH 18 0
BBX 18 14 -1 -3
BITMAP
000000
000000
000000
140000
140000
3E0000
140000
140000
3E0000
140000
140000
000000
000000
000000
ENDCHAR
STARTCHAR U+0024
ENCODING 36
SWIDTH 925 0
DWIDTH 18 0
BBX 18 14 -1 -3
BITMAP
000000
000000
080000
080000
1E0000
200000
200000
1C0000
020000
020000
3C0000
080000
080000
000000
ENDCHAR
STARTCHAR U+0025
ENCODING 37
SWIDTH 925 0
DWIDTH 18 0
BBX 18 14 -1 -3
BITMAP
000000
000000
000000
200000
520000
540000
280000
140000
2A0000
4A0000
040000
000000
000000
000000
ENDCHAR
STARTCHAR U+0026
ENCODING 38
SWIDTH 925 0
DWIDTH 18 0
BBX 18 14 -1 -3
BITMAP
000000
000000
100000
280000
280000
280000
120000
2A0000
240000
260000
190000
000000
000000
000000
ENDCHAR
STARTCHAR U+0027
ENCODING 39
SWIDTH 925 0
DWIDTH 18 0
BBX 18 14 -1 -3
BITMAP
000000
000000
080000
080000
080000
080000
000000
000000
000000
000000
000000
000000
000000
000000
ENDCHAR
STARTCHAR U+0028
ENCODING 40
SWIDTH 925 0
DWIDTH 18 0
BBX 18 14 -1 -3
BITMAP
000000
000000
040000
080000
080000
100000
100000
100000
100000
100000
080000
080000
040000
000000
ENDCHAR
STARTCHAR U+0029
ENCODING 41
SWIDTH 925 0
DWIDTH 18 0
BBX 18 14 -1 -3
BITMAP
000000
000000
100000
080000
080000
040000
040000
040000
040000
040000
080000
080000
100000
000000
ENDCHAR
STARTCHAR U+002A
ENCODING 42
SWIDTH 925 0
DWIDTH 18 0
BBX 18 14 -1 -3
BITMAP
000000
000000
000000
000000
000000
080000
2A0000
1C0000
2A0000
080000
000000
000000
000000
000000
ENDCHAR
STARTCHAR U+002B
ENCODING 43
SWIDTH 925 0
DWIDTH 18 0
BBX 18 14 -1 -3
BITMAP
000000
000000
000000
000000
000000
080000
080000
3E0000
080000
080000
000000
000000
000000
000000
ENDCHAR
STARTCHAR U+002C
ENCODING 44
SWIDTH 925 0
DWIDTH 18 0
BBX 18 14 -1 -3
BITMAP
000000
000000
000000
000000
000000
000000
000000
000000
000000
180000
180000
080000
080000
100000
ENDCHAR
STARTCHAR U+002D
ENCODING 45
SWIDTH 925 0
DWIDTH 18 0
BBX 18 14 -1 -3
BITMAP
000000
000000
000000
000000
000000
000000
000000
3E0000
000000
000000
000000
000000
000000
000000
ENDCHAR
STARTCHAR U+002E
ENCODING 46
SWIDTH 925 0
DWIDTH 18 0
BBX 18 14 -1 -3
BITMAP
000000
000000
000000
000000
000000
000000
000000
000000
000000
180000
180000
000000
000000
000000
ENDCHAR
STARTCHAR U+002F
ENCODING 47
SWIDTH 925 0
DWIDTH 18 0
BBX 18 14 -1 -3
BITMAP
000000
000000
020000
020000
040000
040000
080000
080000
100000
100000
200000
200000
000000
000000
ENDCHAR
STARTCHAR U+0030
ENCODING 48
SWIDTH 925 0
DWIDTH 18 0
BBX 18 14 -1 -3
BITMAP
000000
000000
000000
1C0000
220000
260000
2A0000
320000
220000
220000
1C0000
000000
000000
000000
ENDCHAR
STARTCHAR U+0031
ENCODING 49
SWIDTH 925 0
DWIDTH 18 0
BBX 18 14 -1 -3
BITMAP
000000
000000
000000
080000
180000
280000
080000
080000
080000
080000
3E0000
000000
000000
000000
ENDCHAR
STARTCHAR U+0032
ENCODING 50
SWIDTH 925 0
DWIDTH 18 0
BBX 18 14 -1 -3
BITMAP
000000
000000
000000
1C0000
220000
020000
040000
080000
100000
200000
3E0000
000000
000000
000000
ENDCHAR
STARTCHAR U+0033
ENCODING 51
SWIDTH 925 0
DWIDTH 18 0
BBX 18 14 -1 -3
BITMAP
000000
000000
000000
3E0000
020000
040000
0C0000
020000
020000
220000
1C0000
000000
000000
000000
ENDCHAR
STARTCHAR U+0034
ENCODING 52
SWIDTH 925 0
DWIDTH 18 0
BBX 18 14 -1 -3
BITMAP
000000
000000
000000
040000
0C0000
140000
240000
3E0000
040000
040000
040000
000000
000000
000000
ENDCHAR
STARTCHAR U+0035
ENCODING 53
SWIDTH 925 0
DWIDTH 18 0
BBX 18 14 -1 -3
BITMAP
000000
000000
000000
3E0000
200000
200000
3C0000
020000
020000
220000
1C0000
000000
000000
000000
ENDCHAR
STARTCHAR U+0036
ENCODING 54
SWIDTH 925 0
DWIDTH 18 0
BBX 18 14 -1 -3
BITMAP
000000
000000
000000
0C0000
100000
200000
3C0000
220000
220000
220000
1C0000
000000
000000
000000
ENDCHAR
STARTCHAR U+0037
ENCODING 55
SWIDTH 925 0
DWIDTH 18 0
BBX 18 14 -1 -3
BITMAP
000000
000000
000000
3E0000
020000
040000
040000
080000
080000
100000
100000
000000
000000
000000
ENDCHAR
STARTCHAR U+0038
ENCODING 56
SWIDTH 925 0
DWIDTH 18 0
BBX 18 14 -1 -3
BITMAP
000000
000000
000000
1C0000
220000
220000
1C0000
220000
220000
220000
1C0000
000000
000000
000000
ENDCHAR
STARTCHAR U+0039
ENCODING 57
SWIDTH 925 0
DWIDTH 18 0
BBX 18 14 -1 -3
BITMAP
000000
000000
000000
1C0000
220000
220000
220000
1E0000
020000
040000
180000
000000
000000
000000
ENDCHAR
STARTCHAR U+003A
ENCODING 58
SWIDTH 925 0
DWIDTH 18 0
BBX 18 14 -1 -3
BITMAP
000000
000000
000000
000000
180000
180000
000000
000000
000000
180000
180000
000000
000000
000000
ENDCHAR
STARTCHAR U+003B
ENCODING 59
SWIDTH 925 0
DWIDTH 18 0
BBX 18 14 -1 -3
BITMAP
000000
000000
000000
000000
180000
180000
000000
000000
000000
180000
180000
080000
080000
100000
ENDCHAR
STARTCHAR U+003C
ENCODING 60
SWIDTH 925 0
DWIDTH 18 0
BBX 18 14 -1 -3
BITMAP
000000
000000
000000
000000
020000
040000
080000
100000
080000
040000
020000
000000
000000
000000
ENDCHAR
STARTCHAR U+003D
ENCODING 61
SWIDTH 925 0
DWIDTH 18 0
BBX 18 14 -1 -3
BITMAP
000000
000000
000000
000000
000000
3E0000
000000
000000
3E0000
000000
000000
000000
000000
000000
ENDCHAR
STARTCHAR U+003E
ENCODING 62
SWIDTH 925 0
DWIDTH 18 0
BBX 18 14 -1 -3
BITMAP
000000
000000
000000
000000
200000
100000
080000
040000
080000
100000
200000
000000
000000
000000
ENDCHAR
STARTCHAR U+003F
ENCODING 63
SWIDTH 925 0
DWIDTH 18 0
BBX 18 14 -1 -3
BITMAP
000000
000000
1C0000
220000
020000
040000
080000
000000
000000
080000
080000
000000
000000
000000
ENDCHAR
STARTCHAR U+0040
ENCODING 64
SWIDTH 925 0
DWIDTH 18 0
BBX 18 14 -1 -3
BITMAP
000000
000000
000000
1C0000
220000
220000
260000
2A0000
2E0000
200000
200000
1E0000
000000
000000
ENDCHAR
STARTCHAR U+0041
ENCODING 65
SWIDTH 925 0
DWIDTH 18 0
BBX 18 14 -1 -3
BITMAP
000000
000000
000000
080000
080000
140000
140000
140000
3E0000
220000
220000
000000
000000
000000
ENDCHAR
STARTCHAR U+0042
ENCODING 66
SWIDTH 925 0
DWIDTH 18 0
BBX 18 14 -1 -3
BITMAP
000000
000000
000000
3C0000
220000
220000
3C0000
220000
220000
220000
3C0000
000000
000000
000000
ENDCHAR
STARTCHAR U+0043
ENCODING 67
SWIDTH 925 0
DWIDTH 18 0
BBX 18 14 -1 -3
BITMAP
000000
000000
000000
0E0000
100000
200000
200000
200000
200000
100000
0E0000
000000
000000
000000
ENDCHAR
STARTCHAR U+0044
ENCODING 68
SWIDTH 925 0
DWIDTH 18 0
BBX 18 14 -1 -3
BITMAP
000000
000000
000000
380000
240000
220000
220000
220000
220000
240000
380000
000000
000000
000000
ENDCHAR
STARTCHAR U+0045
ENCODING 69
SWIDTH 925 0
DWIDTH 18 0
BBX 18 14 -1 -3
BITMAP
000000
000000
000000
3E0000
200000
200000
3C0000
200000
200000
200000
3E0000
000000
000000
000000
ENDCHAR
STARTCHAR U+0046
ENCODING 70
SWIDTH 925 0
DWIDTH 18 0
BBX 18 14 -1 -3
BITMAP
000000
000000
000000
3E0000
200000
200000
3C0000
200000
200000
200000
200000
000000
000000
000000
ENDCHAR
STARTCHAR U+0047
ENCODING 71
SWIDTH 925 0
DWIDTH 18 0
BBX 18 14 -1 -3
BITMAP
000000
000000
000000
0E0000
100000
200000
200000
260000
220000
120000
0E0000
000000
000000
000000
ENDCHAR
STARTCHAR U+0048
ENCODING 72
SWIDTH 925 0
DWIDTH 18 0
BBX 18 14 -1 -3
BITMAP
000000
000000
000000
220000
220000
220000
3E0000
220000
220000
220000
220000
000000
000000
000000
ENDCHAR
STARTCHAR U+0049
ENCODING 73
SWIDTH 925 0
DWIDTH 18 0
BBX 18 14 -1 -3
BITMAP
000000
000000
000000
3E0000
080000
080000
080000
080000
080000
080000
3E0000
000000
000000
000000
ENDCHAR
STARTCHAR U+004A
ENCODING 74
SWIDTH 925 0
DWIDTH 18 0
BBX 18 14 -1 -3
BITMAP
000000
000000
000000
020000
020000
020000
020000
020000
220000
220000
1C0000
000000
000000
000000
ENDCHAR
STARTCHAR U+004B
ENCODING 75
SWIDTH 925 0
DWIDTH 18 0
BBX 18 14 -1 -3
BITMAP
000000
000000
000000
220000
240000
280000
300000
300000
280000
240000
220000
000000
000000
000000
ENDCHAR
STARTCHAR U+004C
ENCODING 76
SWIDTH 925 0
DWIDTH 18 0
BBX 18 14 -1 -3
BITMAP
000000
000000
000000
200000
200000
200000
200000
200000
200000
200000
3E0000
000000
000000
000000
ENDCHAR
STARTCHAR U+004D
ENCODING 77
SWIDTH 925 0
DWIDTH 18 0
BBX 18 14 -1 -3
BITMAP
000000
000000
000000
220000
220000
360000
2A0000
2A0000
220000
220000
220000
000000
000000
000000
ENDCHAR
STARTCHAR U+004E
ENCODING 78
SWIDTH 925 0
DWIDTH 18 0
BBX 18 14 -1 -3
BITMAP
000000
000000
000000
220000
220000
320000
2A0000
260000
220000
220000
220000
000000
000000
000000
ENDCHAR
STARTCHAR U+004F
ENCODING 79
SWIDTH 925 0
DWIDTH 18 0
BBX 18 14 -1 -3
BITMAP
000000
000000
000000
1C0000
220000
220000
220000
220000
220000
220000
1C0000
000000
000000
000000
ENDCHAR
STARTCHAR U+0050
ENCODING 80
SWIDTH 925 0
DWIDTH 18 0
BBX 18 14 -1 -3
BITMAP
000000
000000
000000
3C0000
220000
220000
220000
3C0000
200000
200000
200000
000000
000000
000000
ENDCHAR
STARTCHAR U+0051
ENCODING 81
SWIDTH 925 0
DWIDTH 18 0
BBX 18 14 -1 -3
BITMAP
000000
000000
000000
1C0000
220000
220000
220000
220000
220000
220000
1C0000
040000
020000
000000
ENDCHAR
STARTCHAR U+0052
ENCODING 82
SWIDTH 925 0
DWIDTH 18 0
BBX 18 14 -1 -3
BITMAP
000000
000000
000000
3C0000
220000
220000
220000
3C0000
240000
220000
220000
000000
000000
000000
ENDCHAR
STARTCHAR U+0053
ENCODING 83
SWIDTH 925 0
DWIDTH 18 0
BBX 18 14 -1 -3
BITMAP
000000
000000
000000
1E0000
200000
200000
180000
040000
020000
020000
3C0000
000000
000000
000000
ENDCHAR
STARTCHAR U+0054
ENCODING 84
SWIDTH 925 0
DWIDTH 18 0
BBX 18 14 -1 -3
BITMAP
000000
000000
000000
3E0000
080000
080000
080000
080000
080000
080000
080000
000000
000000
000000
ENDCHAR
STARTCHAR U+0055
ENCODING 85
SWIDTH 925 0
DWIDTH 18 0
BBX 18 14 -1 -3
BITMAP
000000
000000
000000
220000
220000
220000
220000
220000
220000
220000
1C0000
000000
000000
000000
ENDCHAR
STARTCHAR U+0056
ENCODING 86
SWIDTH 925 0
DWIDTH 18 0
BBX 18 14 -1 -3
BITMAP
000000
000000
000000
220000
220000
220000
140000
140000
140000
080000
080000
000000
000000
000000
ENDCHAR
STARTCHAR U+0057
ENCODING 87
SWIDTH 925 0
DWIDTH 18 0
BBX 18 14 -1 -3
BITMAP
000000
000000
000000
220000
220000
220000
220000
2A0000
2A0000
360000
220000
000000
000000
000000
ENDCHAR
STARTCHAR U+0058
ENCODING 88
SWIDTH 925 0
DWIDTH 18 0
BBX 18 14 -1 -3
BITMAP
000000
000000
000000
220000
220000
140000
080000
080000
140000
220000
220000
000000
000000
000000
ENDCHAR
STARTCHAR U+0059
ENCODING 89
SWIDTH 925 0
DWIDTH 18 0
BBX 18 14 -1 -3
BITMAP
000000
000000
000000
220000
220000
140000
140000
080000
080000
080000
080000
000000
000000
000000
ENDCHAR
STARTCHAR U+005A
ENCODING 90
SWIDTH 925 0
DWIDTH 18 0
BBX 18 14 -1 -3
BITMAP
000000
000000
000000
3E0000
040000
040000
080000
080000
100000
100000
3E0000
000000
000000
000000
ENDCHAR
STARTCHAR U+005B
ENCODING 91
SWIDTH 925 0
DWIDTH 18 0
BBX 18 14 -1 -3
BITMAP
000000
000000
1C0000
100000
100000
100000
100000
100000
100000
100000
100000
100000
1C0000
000000
ENDCHAR
STARTCHAR U+005C
ENCODING 92
SWIDTH 925 0
DWIDTH 18 0
BBX 18 14 -1 -3
BITMAP
000000
000000
200000
200000
100000
100000
080000
080000
040000
040000
020000
020000
000000
000000
ENDCHAR
STARTCHAR U+005D
ENCODING 93
SWIDTH 925 0
DWIDTH 18 0
BBX 18 14 -1 -3
BITMAP
000000
000000
1C0000
040000
040000
040000
040000
040000
040000
040000
040000
040000
1C0000
000000
ENDCHAR
STARTCHAR U+005E
ENCODING 94
SWIDTH 925 0
DWIDTH 18 0
BBX 18 14 -1 -3
BITMAP
000000
000000
000000
080000
140000
220000
000000
000000
000000
000000
000000
000000
000000
000000
ENDCHAR
STARTCHAR U+005F
ENCODING 95
SWIDTH 925 0
DWIDTH 18 0
BBX 18 14 -1 -3
BITMAP
000000
000000
000000
000000
000000
000000
000000
000000
000000
000000
000000
000000
7F0000
000000
ENDCHAR
STARTCHAR U+0060
ENCODING 96
SWIDTH 925 0
DWIDTH 18 0
BBX 18 14 -1 -3
BITMAP
000000
000000
100000
080000
040000
000000
000000
000000
000000
000000
000000
000000
000000
000000
ENDCHAR
STARTCHAR U+0061
ENCODING 97
SWIDTH 925 0
DWIDTH 18 0
BBX 18 14 -1 -3
BITMAP
000000
000000
000000
000000
000000
1C0000
020000
1E0000
220000
220000
1E0000
000000
000000
000000
ENDCHAR
STARTCHAR U+0062
ENCODING 98
SWIDTH 925 0
DWIDTH 18 0
BBX 18 14 -1 -3
BITMAP
000000
000000
000000
200000
200000
3C0000
220000
220000
220000
220000
3C0000
000000
000000
000000
ENDCHAR
STARTCHAR U+0063
ENCODING 99
SWIDTH 925 0
DWIDTH 18 0
BBX 18 14 -1 -3
BITMAP
000000
000000
000000
000000
000000
1C0000
220000
200000
200000
220000
1C0000
000000
000000
000000
ENDCHAR
STARTCHAR U+0064
ENCODING 100
SWIDTH 925 0
DWIDTH 18 0
BBX 18 14 -1 -3
BITMAP
000000
000000
000000
020000
020000
1E0000
220000
220000
220000
220000
1E0000
000000
000000
000000
ENDCHAR
STARTCHAR U+0065
ENCODING 101
SWIDTH 925 0
DWIDTH 18 0
BBX 18 14 -1 -3
BITMAP
000000
000000
000000
000000
000000
1C0000
220000
3E0000
200000
200000
1E0000
000000
000000
000000
ENDCHAR
STARTCHAR U+0066
ENCODING 102
SWIDTH 925 0
DWIDTH 18 0
BBX 18 14 -1 -3
BITMAP
000000
000000
000000
0E0000
100000
3E0000
100000
100000
100000
100000
100000
000000
000000
000000
ENDCHAR
STARTCHAR U+0067
ENCODING 103
SWIDTH 925 0
DWIDTH 18 0
BBX 18 14 -1 -3
BITMAP
000000
000000
000000
000000
000000
1D0000
220000
220000
1C0000
200000
1E0000
210000
3E0000
000000
ENDCHAR
STARTCHAR U+0068
ENCODING 104
SWIDTH 925 0
DWIDTH 18 0
BBX 18 14 -1 -3
BITMAP
000000
000000
000000
200000
200000
2C0000
320000
220000
220000
220000
220000
000000
000000
000000
ENDCHAR
STARTCHAR U+0069
ENCODING 105
SWIDTH 925 0
DWIDTH 18 0
BBX 18 14 -1 -3
BITMAP
000000
000000
080000
080000
000000
380000
080000
080000
080000
080000
3E0000
000000
000000
000000
ENDCHAR
STARTCHAR U+006A
ENCODING 106
SWIDTH 925 0
DWIDTH 18 0
BBX 18 14 -1 -3
BITMAP
000000
000000
040000
040000
000000
1C0000
040000
040000
040000
040000
040000
040000
380000
000000
ENDCHAR
STARTCHAR U+006B
ENCODING 107
SWIDTH 925 0
DWIDTH 18 0
BBX 18 14 -1 -3
BITMAP
000000
000000
000000
200000
200000
240000
280000
300000
280000
240000
220000
000000
000000
000000
ENDCHAR
STARTCHAR U+006C
ENCODING 108
SWIDTH 925 0
DWIDTH 18 0
BBX 18 14 -1 -3
BITMAP
000000
000000
000000
380000
080000
080000
080000
080000
080000
080000
3E0000
000000
000000
000000
ENDCHAR
STARTCHAR U+006D
ENCODING 109
SWIDTH 925 0
DWIDTH 18 0
BBX 18 14 -1 -3
BITMAP
000000
000000
000000
000000
000000
360000
2A0000
2A0000
2A0000
2A0000
2A0000
000000
000000
000000
ENDCHAR
STARTCHAR U+006E
ENCODING 110
SWIDTH 925 0
DWIDTH 18 0
BBX 18 14 -1 -3
BITMAP
000000
000000
000000
000000
000000
2C0000
320000
220000
220000
220000
220000
000000
000000
000000
ENDCHAR
STARTCHAR U+006F
ENCODING 111
SWIDTH 925 0
DWIDTH 18 0
BBX 18 14 -1 -3
BITMAP
000000
000000
000000
000000
000000
1C0000
220000
220000
220000
220000
1C0000
000000
000000
000000
ENDCHAR
STARTCHAR U+0070
ENCODING 112
SWIDTH 925 0
DWIDTH 18 0
BBX 18 14 -1 -3
BITMAP
000000
000000
000000
000000
000000
3C0000
220000
220000
220000
220000
3C0000
200000
200000
000000
ENDCHAR
STARTCHAR U+0071
ENCODING 113
SWIDTH 925 0
DWIDTH 18 0
BBX 18 14 -1 -3
BITMAP
000000
000000
000000
000000
000000
1E0000
220000
220000
220000
220000
1E0000
020000
020000
000000
ENDCHAR
STARTCHAR U+0072
ENCODING 114
SWIDTH 925 0
DWIDTH 18 0
BBX 18 14 -1 -3
BITMAP
000000
000000
000000
000000
000000
2E0000
300000
200000
200000
200000
200000
000000
000000
000000
ENDCHAR
STARTCHAR U+0073
ENCODING 115
SWIDTH 925 0
DWIDTH 18 0
BBX 18 14 -1 -3
BITMAP
000000
000000
000000
000000
000000
1E0000
200000
180000
040000
020000
3C0000
000000
000000
000000
ENDCHAR
STARTCHAR U+0074
ENCODING 116
SWIDTH 925 0
DWIDTH 18 0
BBX 18 14 -1 -3
BITMAP
000000
000000
000000
100000
100000
3E0000
100000
100000
100000
100000
0E0000
000000
000000
000000
ENDCHAR
STARTCHAR U+0075
ENCODING 117
SWIDTH 925 0
DWIDTH 18 0
BBX 18 14 -1 -3
BITMAP
000000
000000
000000
000000
000000
220000
220000
220000
220000
260000
1A0000
000000
000000
000000
ENDCHAR
STARTCHAR U+0076
ENCODING 118
SWIDTH 925 0
DWIDTH 18 0
BBX 18 14 -1 -3
BITMAP
000000
000000
000000
000000
000000
220000
220000
140000
140000
080000
080000
000000
000000
000000
ENDCHAR
STARTCHAR U+0077
ENCODING 119
SWIDTH 925 0
DWIDTH 18 0
BBX 18 14 -1 -3
BITMAP
000000
000000
000000
000000
000000
220000
220000
2A0000
2A0000
2A0000
360000
000000
000000
000000
ENDCHAR
STARTCHAR U+0078
ENCODING 120
SWIDTH 925 0
DWIDTH 18 0
BBX 18 14 -1 -3
BITMAP
000000
000000
000000
000000
000000
220000
140000
080000
080000
140000
220000
000000
000000
000000
ENDCHAR
STARTCHAR U+0079
ENCODING 121
SWIDTH 925 0
DWIDTH 18 0
BBX 18 14 -1 -3
BITMAP
000000
000000
000000
000000
000000
220000
220000
220000
140000
140000
080000
080000
300000
000000
ENDCHAR
STARTCHAR U+007A
ENCODING 122
SWIDTH 925 0
DWIDTH 18 0
BBX 18 14 -1 -3
BITMAP
000000
000000
000000
000000
000000
3E0000
040000
080000
080000
100000
3E0000
000000
000000
000000
ENDCHAR
STARTCHAR U+007B
ENCODING 123
SWIDTH 925 0
DWIDTH 18 0
BBX 18 14 -1 -3
BITMAP
000000
000000
060000
080000
080000
080000
080000
300000
080000
080000
080000
080000
060000
000000
ENDCHAR
STARTCHAR U+007C
ENCODING 124
SWIDTH 925 0
DWIDTH 18 0
BBX 18 14 -1 -3
BITMAP
000000
000000
080000
080000
080000
080000
080000
080000
080000
080000
080000
080000
000000
000000
ENDCHAR
STARTCHAR U+007D
ENCODING 125
SWIDTH 925 0
DWIDTH 18 0
BBX 18 14 -1 -3
BITMAP
000000
000000
300000
080000
080000
080000
080000
060000
080000
080000
080000
080000
300000
000000
ENDCHAR
STARTCHAR U+007E
ENCODING 126
SWIDTH 925 0
DWIDTH 18 0
BBX 18 14 -1 -3
BITMAP
000000
000000
000000
120000
2A0000
240000
000000
000000
000000
000000
000000
000000
000000
000000
ENDCHAR
STARTCHAR U+00A0
ENCODING 160
SWIDTH 925 0
DWIDTH 18 0
BBX 18 14 -1 -3
BITMAP
000000
000000
000000
000000
000000
000000
000000
000000
000000
000000
000000
000000
000000
000000
ENDCHAR
STARTCHAR U+00A1
ENCODING 161
SWIDTH 925 0
DWIDTH 18 0
BBX 18 14 -1 -3
BITMAP
000000
000000
000000
000000
080000
080000
000000
000000
080000
080000
080000
080000
080000
000000
ENDCHAR
STARTCHAR U+00A2
ENCODING 162
SWIDTH 925 0
DWIDTH 18 0
BBX 18 14 -1 -3
BITMAP
000000
000000
080000
080000
1C0000
220000
200000
200000
220000
1C0000
080000
080000
000000
000000
ENDCHAR
STARTCHAR U+00A3
ENCODING 163
SWIDTH 925 0
DWIDTH 18 0
BBX 18 14 -1 -3
BITMAP
000000
000000
000000
0C0000
100000
100000
3C0000
100000
100000
100000
3E0000
000000
000000
000000
ENDCHAR
STARTCHAR U+00A4
ENCODING 164
SWIDTH 925 0
DWIDTH 18 0
BBX 18 14 -1 -3
BITMAP
000000
000000
000000
000000
220000
1C0000
140000
1C0000
220000
000000
000000
000000
000000
000000
ENDCHAR
STARTCHAR U+00A5
ENCODING 165
SWIDTH 925 0
DWIDTH 18 0
BBX 18 14 -1 -3
BITMAP
000000
000000
000000
220000
140000
080000
3E0000
080000
3E0000
080000
080000
000000
000000
000000
ENDCHAR
STARTCHAR U+00A6
ENCODING 166
SWIDTH 925 0
DWIDTH 18 0
BBX 18 14 -1 -3
BITMAP
000000
000000
000000
080000
080000
080000
080000
000000
080000
080000
080000
080000
000000
000000
ENDCHAR
STARTCHAR U+00A7
ENCODING 167
SWIDTH 925 0
DWIDTH 18 0
BBX 18 14 -1 -3
BITMAP
000000
000000
000000
000000
000000
000000
000000
000000
000000
000000
000000
000000
000000
000000
ENDCHAR
STARTCHAR U+00A8
ENCODING 168
SWIDTH 925 0
DWIDTH 18 0
BBX 18 14 -1 -3
BITMAP
000000
000000
000000
000000
000000
000000
000000
000000
000000
000000
000000
000000
000000
000000
ENDCHAR
STARTCHAR U+00A9
ENCODING 169
SWIDTH 925 0
DWIDTH 18 0
BBX 18 14 -1 -3
BITMAP
000000
000000
000000
000000
000000
000000
000000
000000
000000
000000
000000
000000
000000
000000
ENDCHAR
STARTCHAR U+00AA
ENCODING 170
SWIDTH 925 0
DWIDTH 18 0
BBX 18 14 -1 -3
BITMAP
000000
000000
000000
000000
000000
000000
000000
000000
000000
000000
000000
000000
000000
000000
ENDCHAR
STARTCHAR U+00AB
ENCODING 171
SWIDTH 925 0
DWIDTH 18 0
BBX 18 14 -1 -3
BITMAP
000000
000000
000000
000000
000000
090000
120000
240000
120000
090000
000000
000000
000000
000000
ENDCHAR
STARTCHAR U+00AC
ENCODING 172
SWIDTH 925 0
DWIDTH 18 0
BBX 18 14 -1 -3
BITMAP
000000
000000
000000
000000
000000
000000
000000
000000
000000
000000
000000
000000
000000
000000
ENDCHAR
STARTCHAR U+00AD
ENCODING 173
SWIDTH 925 0
DWIDTH 18 0
BBX 18 14 -1 -3
BITMAP
000000
000000
000000
000000
000000
000000
000000
3E0000
000000
000000
000000
000000
000000
000000
ENDCHAR
STARTCHAR U+00AE
ENCODING 174
SWIDTH 925 0
DWIDTH 18 0
BBX 18 14 -1 -3
BITMAP
000000
000000
000000
000000
000000
000000
000000
000000
000000
000000
000000
000000
000000
000000
ENDCHAR
STARTCHAR U+00AF
ENCODING 175
SWIDTH 925 0
DWIDTH 18 0
BBX 18 14 -1 -3
BITMAP
000000
000000
000000
000000
000000
000000
000000
000000
000000
000000
000000
000000
000000
000000
ENDCHAR
STARTCHAR U+00B0
ENCODING 176
SWIDTH 925 0
DWIDTH 18 0
BBX 18 14 -1 -3
BITMAP
000000
000000
000000
000000
000000
000000
000000
000000
000000
000000
000000
000000
000000
000000
ENDCHAR
STARTCHAR U+00B1
ENCODING 177
SWIDTH 925 0
DWIDTH 18 0
BBX 18 14 -1 -3
BITMAP
000000
000000
000000
000000
000000
000000
000000
000000
000000
000000
000000
000000
000000
000000
ENDCHAR
STARTCHAR U+00B2
ENCODING 178
SWIDTH 925 0
DWIDTH 18 0
BBX 18 14 -1 -3
BITMAP
000000
000000
000000
000000
000000
000000
000000
000000
000000
000000
000000
000000
000000
000000
ENDCHAR
STARTCHAR U+00B3
ENCODING 179
SWIDTH 925 0
DWIDTH 18 0
BBX 18 14 -1 -3
BITMAP
000000
000000
000000
000000
000000
000000
000000
000000
000000
000000
000000
000000
000000
000000
ENDCHAR
STARTCHAR U+00B4
ENCODING 180
SWIDTH 925 0
DWIDTH 18 0
BBX 18 14 -1 -3
BITMAP
000000
000000
040000
080000
000000
000000
000000
000000
000000
000000
000000
000000
000000
000000
ENDCHAR
STARTCHAR U+00B5
ENCODING 181
SWIDTH 925 0
DWIDTH 18 0
BBX 18 14 -1 -3
BITMAP
000000
000000
000000
000000
000000
000000
000000
000000
000000
000000
000000
000000
000000
000000
ENDCHAR
STARTCHAR U+00B6
ENCODING 182
SWIDTH 925 0
DWIDTH 18 0
BBX 18 14 -1 -3
BITMAP
000000
000000
000000
000000
000000
000000
000000
000000
000000
000000
000000
000000
000000
000000
ENDCHAR
STARTCHAR U+00B7
ENCODING 183
SWIDTH 925 0
DWIDTH 18 0
BBX 18 14 -1 -3
BITMAP
000000
000000
000000
000000
000000
000000
000000
000000
000000
000000
000000
000000
000000
000000
ENDCHAR
STARTCHAR U+00B8
ENCODING 184
SWIDTH 925 0
DWIDTH 18 0
BBX 18 14 -1 -3
BITMAP
000000
000000
000000
000000
000000
000000
000000
000000
000000
000000
000000
080000
040000
180000
ENDCHAR
STARTCHAR U+00B9
ENCODING 185
SWIDTH 925 0
DWIDTH 18 0
BBX 18 14 -1 -3
BITMAP
000000
000000
000000
000000
000000
000000
000000
000000
000000
000000
000000
000000
000000
000000
ENDCHAR
STARTCHAR U+00BA
ENCODING 186
SWIDTH 925 0
DWIDTH 18 0
BBX 18 14 -1 -3
BITMAP
000000
000000
000000
000000
000000
000000
000000
000000
000000
000000
000000
000000
000000
000000
ENDCHAR
STARTCHAR U+00BB
ENCODING 187
SWIDTH 925 0
DWIDTH 18 0
BBX 18 14 -1 -3
BITMAP
000000
000000
000000
000000
000000
240000
120000
090000
120000
240000
000000
000000
000000
000000
ENDCHAR
STARTCHAR U+00BC
ENCODING 188
SWIDTH 925 0
DWIDTH 18 0
BBX 18 14 -1 -3
BITMAP
000000
000000
000000
000000
000000
000000
000000
000000
000000
000000
000000
000000
000000
000000
ENDCHAR
STARTCHAR U+00BD
ENCODING 189
SWIDTH 925 0
DWIDTH 18 0
BBX 18 14 -1 -3
BITMAP
000000
000000
000000
000000
000000
000000
000000
000000
000000
000000
000000
000000
000000
000000
ENDCHAR
STARTCHAR U+00BE
ENCODING 190
SWIDTH 925 0
DWIDTH 18 0
BBX 18 14 -1 -3
BITMAP
000000
000000
000000
000000
000000
000000
000000
000000
000000
000000
000000
000000
000000
000000
ENDCHAR
STARTCHAR U+00BF
ENCODING 191
SWIDTH 925 0
DWIDTH 18 0
BBX 18 14 -1 -3
BITMAP
000000
000000
000000
000000
080000
080000
000000
000000
080000
100000
200000
220000
1C0000
000000
ENDCHAR
STARTCHAR U+00C0
ENCODING 192
SWIDTH 925 0
DWIDTH 18 0
BBX 18 14 -1 -3
BITMAP
000000
100000
080000
000000
080000
080000
140000
140000
3E0000
220000
220000
000000
000000
000000
ENDCHAR
STARTCHAR U+00C1
ENCODING 193
SWIDTH 925 0
DWIDTH 18 0
BBX 18 14 -1 -3
BITMAP
000000
040000
080000
000000
080000
080000
140000
140000
3E0000
220000
220000
000000
000000
000000
ENDCHAR
STARTCHAR U+00C2
ENCODING 194
SWIDTH 925 0
DWIDTH 18 0
BBX 18 14 -1 -3
BITMAP
000000
080000
140000
000000
080000
080000
140000
140000
3E0000
220000
220000
000000
000000
000000
ENDCHAR
STARTCHAR U+00C3
ENCODING 195
SWIDTH 925 0
DWIDTH 18 0
BBX 18 14 -1 -3
BITMAP
000000
1A0000
2C0000
000000
080000
080000
140000
140000
3E0000
220000
220000
000000
000000
000000
ENDCHAR
STARTCHAR U+00C4
ENCODING 196
SWIDTH 925 0
DWIDTH 18 0
BBX 18 14 -1 -3
BITMAP
000000
140000
000000
080000
080000
140000
140000
140000
3E0000
220000
220000
000000
000000
000000
ENDCHAR
STARTCHAR U+00C5
ENCODING 197
SWIDTH 925 0
DWIDTH 18 0
BBX 18 14 -1 -3
BITMAP
000000
080000
140000
140000
080000
080000
140000
140000
3E0000
220000
220000
000000
000000
000000
ENDCHAR
STARTCHAR U+00C6
ENCODING 198
SWIDTH 925 0
DWIDTH 18 0
BBX 18 14 -1 -3
BITMAP
000000
000000
000000
0F0000
0C0000
140000
170000
140000
3C0000
240000
270000
000000
000000
000000
ENDCHAR
STARTCHAR U+00C7
ENCODING 199
SWIDTH 925 0
DWIDTH 18 0
BBX 18 14 -1 -3
BITMAP
000000
000000
000000
0E0000
100000
200000
200000
200000
200000
100000
0E0000
040000
020000
0C0000
ENDCHAR
STARTCHAR U+00C8
ENCODING 200
SWIDTH 925 0
DWIDTH 18 0
BBX 18 14 -1 -3
BITMAP
000000
100000
080000
000000
3E0000
200000
200000
3C0000
200000
200000
3E0000
000000
000000
000000
ENDCHAR
STARTCHAR U+00C9
ENCODING 201
SWIDTH 925 0
DWIDTH 18 0
BBX 18 14 -1 -3
BITMAP
000000
040000
080000
000000
3E0000
200000
200000
3C0000
200000
200000
3E0000
000000
000000
000000
ENDCHAR
STARTCHAR U+00CA
ENCODING 202
SWIDTH 925 0
DWIDTH 18 0
BBX 18 14 -1 -3
BITMAP
000000
080000
140000
000000
3E0000
200000
200000
3C0000
200000
200000
3E0000
000000
000000
000000
ENDCHAR
STARTCHAR U+00CB
ENCODING 203
SWIDTH 925 0
DWIDTH 18 0
BBX 18 14 -1 -3
BITMAP
000000
140000
000000
3E0000
200000
200000
3C0000
200000
200000
200000
3E0000
000000
000000
000000
ENDCHAR
STARTCHAR U+00CC
ENCODING 204
SWIDTH 925 0
DWIDTH 18 0
BBX 18 14 -1 -3
BITMAP
000000
100000
080000
000000
3E0000
080000
080000
080000
080000
080000
3E0000
000000
000000
000000
ENDCHAR
STARTCHAR U+00CD
ENCODING 205
SWIDTH 925 0
DWIDTH 18 0
BBX 18 14 -1 -3
BITMAP
000000
040000
080000
000000
3E0000
080000
080000
080000
080000
080000
3E0000
000000
000000
000000
ENDCHAR
STARTCHAR U+00CE
ENCODING 206
SWIDTH 925 0
DWIDTH 18 0
BBX 18 14 -1 -3
BITMAP
000000
080000
140000
000000
3E0000
080000
080000
080000
080000
080000
3E0000
000000
000000
000000
ENDCHAR
STARTCHAR U+00CF
ENCODING 207
SWIDTH 925 0
DWIDTH 18 0
BBX 18 14 -1 -3
BITMAP
000000
140000
000000
3E0000
080000
080000
080000
080000
080000
080000
3E0000
000000
000000
000000
ENDCHAR
STARTCHAR U+00D0
ENCODING 208
SWIDTH 925 0
DWIDTH 18 0
BBX 18 14 -1 -3
BITMAP
000000
000000
000000
380000
240000
220000
720000
220000
220000
240000
380000
000000
000000
000000
ENDCHAR
STARTCHAR U+00D1
ENCODING 209
SWIDTH 925 0
DWIDTH 18 0
BBX 18 14 -1 -3
BITMAP
000000
1A0000
2C0000
000000
220000
220000
320000
2A0000
260000
220000
220000
000000
000000
000000
ENDCHAR
STARTCHAR U+00D2
ENCODING 210
SWIDTH 925 0
DWIDTH 18 0
BBX 18 14 -1 -3
BITMAP
000000
100000
080000
000000
1C0000
220000
220000
220000
220000
220000
1C0000
000000
000000
000000
ENDCHAR
STARTCHAR U+00D3
ENCODING 211
SWIDTH 925 0
DWIDTH 18 0
BBX 18 14 -1 -3
BITMAP
000000
040000
080000
000000
1C0000
220000
220000
220000
220000
220000
1C0000
000000
000000
000000
ENDCHAR
STARTCHAR U+00D4
ENCODING 212
SWIDTH 925 0
DWIDTH 18 0
BBX 18 14 -1 -3
BITMAP
000000
080000
140000
000000
1C0000
220000
220000
220000
220000
220000
1C0000
000000
000000
000000
ENDCHAR
STARTCHAR U+00D5
ENCODING 213
SWIDTH 925 0
DWIDTH 18 0
BBX 18 14 -1 -3
BITMAP
000000
1A0000
2C0000
000000
1C0000
220000
220000
220000
220000
220000
1C0000
000000
000000
000000
ENDCHAR
STARTCHAR U+00D6
ENCODING 214
SWIDTH 925 0
DWIDTH 18 0
BBX 18 14 -1 -3
BITMAP
000000
140000
000000
1C0000
220000
220000
220000
220000
220000
220000
1C0000
000000
000000
000000
ENDCHAR
STARTCHAR U+00D7
ENCODING 215
SWIDTH 925 0
DWIDTH 18 0
BBX 18 14 -1 -3
BITMAP
000000
000000
000000
000000
000000
220000
140000
080000
140000
220000
000000
000000
000000
000000
ENDCHAR
STARTCHAR U+00D8
ENCODING 216
SWIDTH 925 0
DWIDTH 18 0
BBX 18 14 -1 -3
BITMAP
000000
000000
020000
1C0000
260000
260000
2A0000
2A0000
320000
320000
1C0000
200000
000000
000000
ENDCHAR
STARTCHAR U+00D9
ENCODING 217
SWIDTH 925 0
DWIDTH 18 0
BBX 18 14 -1 -3
BITMAP
000000
100000
080000
000000
220000
220000
220000
220000
220000
220000
1C0000
000000
000000
000000
ENDCHAR
STARTCHAR U+00DA
ENCODING 218
SWIDTH 925 0
DWIDTH 18 0
BBX 18 14 -1 -3
BITMAP
000000
040000
080000
000000
220000
220000
220000
220000
220000
220000
1C0000
000000
000000
000000
ENDCHAR
STARTCHAR U+00DB
ENCODING 219
SWIDTH 925 0
DWIDTH 18 0
BBX 18 14 -1 -3
BITMAP
000000
080000
140000
000000
220000
220000
220000
220000
220000
220000
1C0000
000000
000000
000000
ENDCHAR
STARTCHAR U+00DC
ENCODING 220
SWIDTH 925 0
DWIDTH 18 0
BBX 18 14 -1 -3
BITMAP
000000
140000
000000
220000
220000
220000
220000
220000
220000
220000
1C0000
000000
000000
000000
ENDCHAR
STARTCHAR U+00DD
ENCODING 221
SWIDTH 925 0
DWIDTH 18 0
BBX 18 14 -1 -3
BITMAP
000000
040000
080000
220000
220000
140000
140000
080000
080000
080000
080000
000000
000000
000000
ENDCHAR
STARTCHAR U+00DE
ENCODING 222
SWIDTH 925 0
DWIDTH 18 0
BBX 18 14 -1 -3
BITMAP
000000
000000
000000
200000
3C0000
220000
220000
220000
220000
3C0000
200000
000000
000000
000000
ENDCHAR
STARTCHAR U+00DF
ENCODING 223
SWIDTH 925 0
DWIDTH 18 0
BBX 18 14 -1 -3
BITMAP
000000
000000
000000
1C0000
220000
240000
2C0000
220000
220000
220000
2C0000
000000
000000
000000
ENDCHAR
STARTCHAR U+00E0
ENCODING 224
SWIDTH 925 0
DWIDTH 18 0
BBX 18 14 -1 -3
BITMAP
000000
000000
100000
080000
000000
1C0000
020000
1E0000
220000
220000
1E0000
000000
000000
000000
ENDCHAR
STARTCHAR U+00E1
ENCODING 225
SWIDTH 925 0
DWIDTH 18 0
BBX 18 14 -1 -3
BITMAP
000000
000000
040000
080000
000000
1C0000
020000
1E0000
220000
220000
1E0000
000000
000000
000000
ENDCHAR
STARTCHAR U+00E2
ENCODING 226
SWIDTH 925 0
DWIDTH 18 0
BBX 18 14 -1 -3
BITMAP
000000
080000
140000
000000
000000
1C0000
020000
1E0000
220000
220000
1E0000
000000
000000
000000
ENDCHAR
STARTCHAR U+00E3
ENCODING 227
SWIDTH 925 0
DWIDTH 18 0
BBX 18 14 -1 -3
BITMAP
000000
000000
1A0000
2C0000
000000
1C0000
020000
1E0000
220000
220000
1E0000
000000
000000
000000
ENDCHAR
STARTCHAR U+00E4
ENCODING 228
SWIDTH 925 0
DWIDTH 18 0
BBX 18 14 -1 -3
BITMAP
000000
000000
000000
140000
000000
1C0000
020000
1E0000
220000
220000
1E0000
000000
000000
000000
ENDCHAR
STARTCHAR U+00E5
ENCODING 229
SWIDTH 925 0
DWIDTH 18 0
BBX 18 14 -1 -3
BITMAP
000000
0C0000
120000
0C0000
000000
1C0000
020000
1E0000
220000
220000
1E0000
000000
000000
000000
ENDCHAR
STARTCHAR U+00E6
ENCODING 230
SWIDTH 925 0
DWIDTH 18 0
BBX 18 14 -1 -3
BITMAP
000000
000000
000000
000000
000000
360000
090000
3F0000
480000
480000
370000
000000
000000
000000
ENDCHAR
STARTCHAR U+00E7
ENCODING 231
SWIDTH 925 0
DWIDTH 18 0
BBX 18 14 -1 -3
BITMAP
000000
000000
000000
000000
000000
1C0000
220000
200000
200000
220000
1C0000
080000
040000
180000
ENDCHAR
STARTCHAR U+00E8
ENCODING 232
SWIDTH 925 0
DWIDTH 18 0
BBX 18 14 -1 -3
BITMAP
000000
000000
100000
080000
000000
1C0000
220000
3E0000
200000
200000
1E0000
000000
000000
000000
ENDCHAR
STARTCHAR U+00E9
ENCODING 233
SWIDTH 925 0
DWIDTH 18 0
BBX 18 14 -1 -3
BITMAP
000000
000000
040000
080000
000000
1C0000
220000
3E0000
200000
200000
1E0000
000000
000000
000000
ENDCHAR
STARTCHAR U+00EA
ENCODING 234
SWIDTH 925 0
DWIDTH 18 0
BBX 18 14 -1 -3
BITMAP
000000
080000
140000
000000
000000
1C0000
220000
3E0000
200000
200000
1E0000
000000
000000
000000
ENDCHAR
STARTCHAR U+00EB
ENCODING 235
SWIDTH 925 0
DWIDTH 18 0
BBX 18 14 -1 -3
BITMAP
000000
000000
000000
140000
000000
1C0000
220000
3E0000
200000
200000
1E0000
000000
000000
000000
ENDCHAR
STARTCHAR U+00EC
ENCODING 236
SWIDTH 925 0
DWIDTH 18 0
BBX 18 14 -1 -3
BITMAP
000000
000000
100000
080000
000000
380000
080000
080000
080000
080000
3E0000
000000
000000
000000
ENDCHAR
STARTCHAR U+00ED
ENCODING 237
SWIDTH 925 0
DWIDTH 18 0
BBX 18 14 -1 -3
BITMAP
000000
000000
040000
080000
000000
380000
080000
080000
080000
080000
3E0000
000000
000000
000000
ENDCHAR
STARTCHAR U+00EE
ENCODING 238
SWIDTH 925 0
DWIDTH 18 0
BBX 18 14 -1 -3
BITMAP
000000
080000
140000
000000
000000
380000
080000
080000
080000
080000
3E0000
000000
000000
000000
ENDCHAR
STARTCHAR U+00EF
ENCODING 239
SWIDTH 925 0
DWIDTH 18 0
BBX 18 14 -1 -3
BITMAP
000000
000000
000000
140000
000000
380000
080000
080000
080000
080000
3E0000
000000
000000
000000
ENDCHAR
STARTCHAR U+00F0
ENCODING 240
SWIDTH 925 0
DWIDTH 18 0
BBX 18 14 -1 -3
BITMAP
000000
120000
0C0000
3C0000
020000
1E0000
220000
220000
220000
220000
1C0000
000000
000000
000000
ENDCHAR
STARTCHAR U+00F1
ENCODING 241
SWIDTH 925 0
DWIDTH 18 0
BBX 18 14 -1 -3
BITMAP
000000
000000
1A0000
2C0000
000000
2C0000
320000
220000
220000
220000
220000
000000
000000
000000
ENDCHAR
STARTCHAR U+00F2
ENCODING 242
SWIDTH 925 0
DWIDTH 18 0
BBX 18 14 -1 -3
BITMAP
000000
000000
100000
080000
000000
1C0000
220000
220000
220000
220000
1C0000
000000
000000
000000
ENDCHAR
STARTCHAR U+00F3
ENCODING 243
SWIDTH 925 0
DWIDTH 18 0
BBX 18 14 -1 -3
BITMAP
000000
000000
040000
080000
000000
1C0000
220000
220000
220000
220000
1C0000
000000
000000
000000
ENDCHAR
STARTCHAR U+00F4
ENCODING 244
SWIDTH 925 0
DWIDTH 18 0
BBX 18 14 -1 -3
BITMAP
000000
080000
140000
000000
000000
1C0000
220000
220000
220000
220000
1C0000
000000
000000
000000
ENDCHAR
STARTCHAR U+00F5
ENCODING 245
SWIDTH 925 0
DWIDTH 18 0
BBX 18 14 -1 -3
BITMAP
000000
000000
1A0000
2C0000
000000
1C0000
220000
220000
220000
220000
1C0000
000000
000000
000000
ENDCHAR
STARTCHAR U+00F6
ENCODING 246
SWIDTH 925 0
DWIDTH 18 0
BBX 18 14 -1 -3
BITMAP
000000
000000
000000
140000
000000
1C0000
220000
220000
220000
220000
1C0000
000000
000000
000000
ENDCHAR
STARTCHAR U+00F7
ENCODING 247
SWIDTH 925 0
DWIDTH 18 0
BBX 18 14 -1 -3
BITMAP
000000
000000
000000
000000
080000
080000
000000
3E0000
000000
080000
080000
000000
000000
000000
ENDCHAR
STARTCHAR U+00F8
ENCODING 248
SWIDTH 925 0
DWIDTH 18 0
BBX 18 14 -1 -3
BITMAP
000000
000000
000000
000000
020000
1C0000
260000
2A0000
2A0000
320000
1C0000
200000
000000
000000
ENDCHAR
STARTCHAR U+00F9
ENCODING 249
SWIDTH 925 0
DWIDTH 18 0
BBX 18 14 -1 -3
BITMAP
000000
000000
100000
080000
000000
220000
220000
220000
220000
260000
1A0000
000000
000000
000000
ENDCHAR
STARTCHAR U+00FA
ENCODING 250
SWIDTH 925 0
DWIDTH 18 0
BBX 18 14 -1 -3
BITMAP
000000
000000
040000
080000
000000
220000
220000
220000
220000
260000
1A0000
000000
000000
000000
ENDCHAR
STARTCHAR U+00FB
ENCODING 251
SWIDTH 925 0
DWIDTH 18 0
BBX 18 14 -1 -3
BITMAP
000000
080000
140000
000000
000000
220000
220000
220000
220000
260000
1A0000
000000
000000
000000
ENDCHAR
STARTCHAR U+00FC
ENCODING 252
SWIDTH 925 0
DWIDTH 18 0
BBX 18 14 -1 -3
BITMAP
000000
000000
000000
140000
000000
220000
220000
220000
220000
260000
1A0000
000000
000000
000000
ENDCHAR
STARTCHAR U+00FD
ENCODING 253
SWIDTH 925 0
DWIDTH 18 0
BBX 18 14 -1 -3
BITMAP
000000
000000
040000
080000
000000
220000
220000
220000
140000
140000
080000
080000
300000
000000
ENDCHAR
STARTCHAR U+00FE
ENCODING 254
SWIDTH 925 0
DWIDTH 18 0
BBX 18 14 -1 -3
BITMAP
000000
000000
000000
200000
200000
3C0000
220000
220000
220000
220000
3C0000
200000
200000
000000
ENDCHAR
STARTCHAR U+00FF
ENCODING 255
SWIDTH 925 0
DWIDTH 18 0
BBX 18 14 -1 -3
BITMAP
000000
000000
000000
140000
000000
220000
220000
220000
140000
140000
080000
080000
300000
000000
ENDCHAR
STARTCHAR U+0041
ENCODING 256
SWIDTH 925 0
DWIDTH 18 0
BBX 18 14 -1 -3
BITMAP
000000
1C0000
000000
080000
080000
140000
140000
140000
3E0000
220000
220000
000000
000000
000000
ENDCHAR
STARTCHAR U+0061
ENCODING 257
SWIDTH 925 0
DWIDTH 18 0
BBX 18 14 -1 -3
BITMAP
000000
000000
000000
1C0000
000000
1C0000
020000
1E0000
220000
220000
1E0000
000000
000000
000000
ENDCHAR
STARTCHAR U+0041
ENCODING 258
SWIDTH 925 0
DWIDTH 18 0
BBX 18 14 -1 -3
BITMAP
140000
080000
000000
080000
080000
140000
140000
140000
3E0000
220000
220000
000000
000000
000000
ENDCHAR
STARTCHAR U+0061
ENCODING 259
SWIDTH 925 0
DWIDTH 18 0
BBX 18 14 -1 -3
BITMAP
000000
000000
140000
080000
000000
1C0000
020000
1E0000
220000
220000
1E0000
000000
000000
000000
ENDCHAR
STARTCHAR U+0041
ENCODING 260
SWIDTH 925 0
DWIDTH 18 0
BBX 18 14 -1 -3
BITMAP
000000
000000
000000
080000
080000
140000
140000
140000
3E0000
220000
220000
040000
030000
000000
ENDCHAR
STARTCHAR U+0061
ENCODING 261
SWIDTH 925 0
DWIDTH 18 0
BBX 18 14 -1 -3
BITMAP
000000
000000
000000
000000
000000
1C0000
020000
1E0000
220000
220000
1E0000
040000
030000
000000
ENDCHAR
STARTCHAR U+0043
ENCODING 262
SWIDTH 925 0
DWIDTH 18 0
BBX 18 14 -1 -3
BITMAP
020000
040000
000000
0E0000
100000
200000
200000
200000
200000
100000
0E0000
000000
000000
000000
ENDCHAR
STARTCHAR U+0063
ENCODING 263
SWIDTH 925 0
DWIDTH 18 0
BBX 18 14 -1 -3
BITMAP
000000
000000
040000
080000
000000
1C0000
220000
200000
200000
220000
1C0000
000000
000000
000000
ENDCHAR
STARTCHAR U+0043
ENCODING 264
SWIDTH 925 0
DWIDTH 18 0
BBX 18 14 -1 -3
BITMAP
080000
140000
000000
0E0000
100000
200000
200000
200000
200000
100000
0E0000
000000
000000
000000
ENDCHAR
STARTCHAR U+0063
ENCODING 265
SWIDTH 925 0
DWIDTH 18 0
BBX 18 14 -1 -3
BITMAP
000000
080000
140000
000000
000000
1C0000
220000
200000
200000
220000
1C0000
000000
000000
000000
ENDCHAR
STARTCHAR U+0043
ENCODING 266
SWIDTH 925 0
DWIDTH 18 0
BBX 18 14 -1 -3
BITMAP
080000
080000
000000
0E0000
100000
200000
200000
200000
200000
100000
0E0000
000000
000000
000000
ENDCHAR
STARTCHAR U+0063
ENCODING 267
SWIDTH 925 0
DWIDTH 18 0
BBX 18 14 -1 -3
BITMAP
000000
000000
080000
080000
000000
1C0000
220000
200000
200000
220000
1C0000
000000
000000
000000
ENDCHAR
STARTCHAR U+0043
ENCODING 268
SWIDTH 925 0
DWIDTH 18 0
BBX 18 14 -1 -3
BITMAP
140000
080000
000000
0E0000
100000
200000
200000
200000
200000
100000
0E0000
000000
000000
000000
ENDCHAR
STARTCHAR U+0063
ENCODING 269
SWIDTH 925 0
DWIDTH 18 0
BBX 18 14 -1 -3
BITMAP
000000
000000
140000
080000
000000
1C0000
220000
200000
200000
220000
1C0000
000000
000000
000000
ENDCHAR
STARTCHAR U+0044
ENCODING 270
SWIDTH 925 0
DWIDTH 18 0
BBX 18 14 -1 -3
BITMAP
140000
080000
000000
380000
240000
220000
220000
220000
220000
240000
380000
000000
000000
000000
ENDCHAR
STARTCHAR U+0064
ENCODING 271
SWIDTH 925 0
DWIDTH 18 0
BBX 18 14 -1 -3
BITMAP
000000
140000
080000
020000
020000
1E0000
220000
220000
220000
220000
1E0000
000000
000000
000000
ENDCHAR
STARTCHAR U+0044
ENCODING 272
SWIDTH 925 0
DWIDTH 18 0
BBX 18 14 -1 -3
BITMAP
000000
000000
000000
380000
240000
220000
3A0000
220000
220000
240000
380000
000000
000000
000000
ENDCHAR
STARTCHAR U+0064
ENCODING 273
SWIDTH 925 0
DWIDTH 18 0
BBX 18 14 -1 -3
BITMAP
000000
000000
000000
070000
020000
1E0000
220000
220000
220000
220000
1E0000
000000
000000
000000
ENDCHAR
STARTCHAR U+0045
ENCODING 274
SWIDTH 925 0
DWIDTH 18 0
BBX 18 14 -1 -3
BITMAP
000000
1C0000
000000
3E0000
200000
200000
3C0000
200000
200000
200000
3E0000
000000
000000
000000
ENDCHAR
STARTCHAR U+0065
ENCODING 275
SWIDTH 925 0
DWIDTH 18 0
BBX 18 14 -1 -3
BITMAP
000000
000000
000000
1C0000
000000
1C0000
220000
3E0000
200000
200000
1E0000
000000
000000
000000
ENDCHAR
STARTCHAR U+0045
ENCODING 276
SWIDTH 925 0
DWIDTH 18 0
BBX 18 14 -1 -3
BITMAP
140000
080000
000000
3E0000
200000
200000
3C0000
200000
200000
200000
3E0000
000000
000000
000000
ENDCHAR
STARTCHAR U+0065
ENCODING 277
SWIDTH 925 0
DWIDTH 18 0
BBX 18 14 -1 -3
BITMAP
000000
000000
140000
080000
000000
1C0000
220000
3E0000
200000
200000
1E0000
000000
000000
000000
ENDCHAR
STARTCHAR U+0045
ENCODING 278
SWIDTH 925 0
DWIDTH 18 0
BBX 18 14 -1 -3
BITMAP
080000
080000
000000
3E0000
200000
200000
3C0000
200000
200000
200000
3E0000
000000
000000
000000
ENDCHAR
STARTCHAR U+0065
ENCODING 279
SWIDTH 925 0
DWIDTH 18 0
BBX 18 14 -1 -3
BITMAP
000000
000000
080000
080000
000000
1C0000
220000
3E0000
200000
200000
1E0000
000000
000000
000000
ENDCHAR
STARTCHAR U+0045
ENCODING 280
SWIDTH 925 0
DWIDTH 18 0
BBX 18 14 -1 -3
BITMAP
000000
000000
000000
3E0000
200000
200000
3C0000
200000
200000
200000
3E0000
040000
030000
000000
ENDCHAR
STARTCHAR U+0065
ENCODING 281
SWIDTH 925 0
DWIDTH 18 0
BBX 18 14 -1 -3
BITMAP
000000
000000
000000
000000
000000
1C0000
220000
3E0000
200000
200000
1E0000
040000
030000
000000
ENDCHAR
STARTCHAR U+0045
ENCODING 282
SWIDTH 925 0
DWIDTH 18 0
BBX 18 14 -1 -3
BITMAP
140000
080000
000000
3E0000
200000
200000
3C0000
200000
200000
200000
3E0000
000000
000000
000000
ENDCHAR
STARTCHAR U+0065
ENCODING 283
SWIDTH 925 0
DWIDTH 18 0
BBX 18 14 -1 -3
BITMAP
000000
000000
140000
080000
000000
1C0000
220000
3E0000
200000
200000
1E0000
000000
000000
000000
ENDCHAR
STARTCHAR U+0047
ENCODING 284
SWIDTH 925 0
DWIDTH 18 0
BBX 18 14 -1 -3
BITMAP
080000
140000
000000
0E0000
100000
200000
200000
260000
220000
120000
0E0000
000000
000000
000000
ENDCHAR
STARTCHAR U+0067
ENCODING 285
SWIDTH 925 0
DWIDTH 18 0
BBX 18 14 -1 -3
BITMAP
000000
080000
140000
000000
000000
1D0000
220000
220000
1C0000
200000
1E0000
210000
3E0000
000000
ENDCHAR
STARTCHAR U+0047
ENCODING 286
SWIDTH 925 0
DWIDTH 18 0
BBX 18 14 -1 -3
BITMAP
140000
080000
000000
0E0000
100000
200000
200000
260000
220000
120000
0E0000
000000
000000
000000
ENDCHAR
STARTCHAR U+0067
ENCODING 287
SWIDTH 925 0
DWIDTH 18 0
BBX 18 14 -1 -3
BITMAP
000000
000000
140000
080000
000000
1D0000
220000
220000
1C0000
200000
1E0000
210000
3E0000
000000
ENDCHAR
STARTCHAR U+0047
ENCODING 288
SWIDTH 925 0
DWIDTH 18 0
BBX 18 14 -1 -3
BITMAP
080000
080000
000000
0E0000
100000
200000
200000
260000
220000
120000
0E0000
000000
000000
000000
ENDCHAR
STARTCHAR U+0067
ENCODING 289
SWIDTH 925 0
DWIDTH 18 0
BBX 18 14 -1 -3
BITMAP
000000
000000
080000
080000
000000
1D0000
220000
220000
1C0000
200000
1E0000
210000
3E0000
000000
ENDCHAR
STARTCHAR U+0047
ENCODING 290
SWIDTH 925 0
DWIDTH 18 0
BBX 18 14 -1 -3
BITMAP
000000
000000
000000
0E0000
100000
200000
200000
260000
220000
120000
0E0000
080000
100000
000000
ENDCHAR
STARTCHAR U+0067
ENCODING 291
SWIDTH 925 0
DWIDTH 18 0
BBX 18 14 -1 -3
BITMAP
000000
000000
040000
080000
000000
1D0000
220000
220000
1C0000
200000
1E0000
210000
3E0000
000000
ENDCHAR
STARTCHAR U+0048
ENCODING 292
SWIDTH 925 0
DWIDTH 18 0
BBX 18 14 -1 -3
BITMAP
080000
140000
000000
220000
220000
220000
3E0000
220000
220000
220000
220000
000000
000000
000000
ENDCHAR
STARTCHAR U+0068
ENCODING 293
SWIDTH 925 0
DWIDTH 18 0
BBX 18 14 -1 -3
BITMAP
000000
080000
140000
200000
200000
2C0000
320000
220000
220000
220000
220000
000000
000000
000000
ENDCHAR
STARTCHAR U+0048
ENCODING 294
SWIDTH 925 0
DWIDTH 18 0
BBX 18 14 -1 -3
BITMAP
000000
000000
000000
220000
3F0000
220000
3E0000
220000
220000
220000
220000
000000
000000
000000
ENDCHAR
STARTCHAR U+0068
ENCODING 295
SWIDTH 925 0
DWIDTH 18 0
BBX 18 14 -1 -3
BITMAP
000000
000000
000000
3C0000
200000
2C0000
320000
220000
220000
220000
220000
000000
000000
000000
ENDCHAR
STARTCHAR U+0049
ENCODING 296
SWIDTH 925 0
DWIDTH 18 0
BBX 18 14 -1 -3
BITMAP
1A0000
2C0000
000000
3E0000
080000
080000
080000
080000
080000
080000
3E0000
000000
000000
000000
ENDCHAR
STARTCHAR U+0069
ENCODING 297
SWIDTH 925 0
DWIDTH 18 0
BBX 18 14 -1 -3
BITMAP
000000
000000
1A0000
2C0000
000000
380000
080000
080000
080000
080000
3E0000
000000
000000
000000
ENDCHAR
STARTCHAR U+0049
ENCODING 298
SWIDTH 925 0
DWIDTH 18 0
BBX 18 14 -1 -3
BITMAP
000000
1C0000
000000
3E0000
080000
080000
080000
080000
080000
080000
3E0000
000000
000000
000000
ENDCHAR
STARTCHAR U+0069
ENCODING 299
SWIDTH 925 0
DWIDTH 18 0
BBX 18 14 -1 -3
BITMAP
000000
000000
000000
1C0000
000000
380000
080000
080000
080000
080000
3E0000
000000
000000
000000
ENDCHAR
STARTCHAR U+0049
ENCODING 300
SWIDTH 925 0
DWIDTH 18 0
BBX 18 14 -1 -3
BITMAP
140000
080000
000000
3E0000
080000
080000
080000
080000
080000
080000
3E0000
000000
000000
000000
ENDCHAR
STARTCHAR U+0069
ENCODING 301
SWIDTH 925 0
DWIDTH 18 0
BBX 18 14 -1 -3
BITMAP
000000
000000
140000
080000
000000
380000
080000
080000
080000
080000
3E0000
000000
000000
000000
ENDCHAR
STARTCHAR U+0049
ENCODING 302
SWIDTH 925 0
DWIDTH 18 0
BBX 18 14 -1 -3
BITMAP
000000
000000
000000
3E0000
080000
080000
080000
080000
080000
080000
3E0000
080000
060000
000000
ENDCHAR
STARTCHAR U+0069
ENCODING 303
SWIDTH 925 0
DWIDTH 18 0
BBX 18 14 -1 -3
BITMAP
000000
000000
080000
080000
000000
380000
080000
080000
080000
080000
3E0000
080000
060000
000000
ENDCHAR
STARTCHAR U+0049
ENCODING 304
SWIDTH 925 0
DWIDTH 18 0
BBX 18 14 -1 -3
BITMAP
080000
080000
000000
3E0000
080000
080000
080000
080000
080000
080000
3E0000
000000
000000
000000
ENDCHAR
STARTCHAR U+0069
ENCODING 305
SWIDTH 925 0
DWIDTH 18 0
BBX 18 14 -1 -3
BITMAP
000000
000000
000000
000000
000000
380000
080000
080000
080000
080000
3E0000
000000
000000
000000
ENDCHAR
STARTCHAR U+004A
ENCODING 308
SWIDTH 925 0
DWIDTH 18 0
BBX 18 14 -1 -3
BITMAP
080000
140000
000000
020000
020000
020000
020000
020000
220000
220000
1C0000
000000
000000
000000
ENDCHAR
STARTCHAR U+006A
ENCODING 309
SWIDTH 925 0
DWIDTH 18 0
BBX 18 14 -1 -3
BITMAP
000000
080000
140000
000000
000000
1C0000
040000
040000
040000
040000
040000
040000
380000
000000
ENDCHAR
STARTCHAR U+004B
ENCODING 310
SWIDTH 925 0
DWIDTH 18 0
BBX 18 14 -1 -3
BITMAP
000000
000000
000000
220000
240000
280000
300000
300000
280000
240000
320000
100000
200000
000000
ENDCHAR
STARTCHAR U+006B
ENCODING 311
SWIDTH 925 0
DWIDTH 18 0
BBX 18 14 -1 -3
BITMAP
000000
000000
000000
200000
200000
240000
280000
300000
280000
240000
320000
100000
200000
000000
ENDCHAR
STARTCHAR U+006B
ENCODING 312
SWIDTH 925 0
DWIDTH 18 0
BBX 18 14 -1 -3
BITMAP
000000
000000
000000
000000
000000
000000
240000
280000
300000
280000
240000
000000
000000
000000
ENDCHAR
STARTCHAR U+004C
ENCODING 313
SWIDTH 925 0
DWIDTH 18 0
BBX 18 14 -1 -3
BITMAP
040000
080000
000000
200000
200000
200000
200000
200000
200000
200000
3E0000
000000
000000
000000
ENDCHAR
STARTCHAR U+006C
ENCODING 314
SWIDTH 925 0
DWIDTH 18 0
BBX 18 14 -1 -3
BITMAP
040000
080000
000000
380000
080000
080000
080000
080000
080000
080000
3E0000
000000
000000
000000
ENDCHAR
STARTCHAR U+004C
ENCODING 315
SWIDTH 925 0
DWIDTH 18 0
BBX 18 14 -1 -3
BITMAP
000000
000000
000000
200000
200000
200000
200000
200000
200000
200000
3E0000
080000
100000
000000
ENDCHAR
STARTCHAR U+006C
ENCODING 316
SWIDTH 925 0
DWIDTH 18 0
BBX 18 14 -1 -3
BITMAP
000000
000000
000000
380000
080000
080000
080000
080000
080000
080000
3E0000
080000
100000
000000
ENDCHAR
STARTCHAR U+004C
ENCODING 317
SWIDTH 925 0
DWIDTH 18 0
BBX 18 14 -1 -3
BITMAP
140000
080000
000000
200000
200000
200000
200000
200000
200000
200000
3E0000
000000
000000
000000
ENDCHAR
STARTCHAR U+006C
ENCODING 318
SWIDTH 925 0
DWIDTH 18 0
BBX 18 14 -1 -3
BITMAP
140000
080000
000000
380000
080000
080000
080000
080000
080000
080000
3E0000
000000
000000
000000
ENDCHAR
STARTCHAR U+004C
ENCODING 319
SWIDTH 925 0
DWIDTH 18 0
BBX 18 14 -1 -3
BITMAP
000000
000000
000000
200000
200000
280000
280000
280000
200000
200000
3E0000
000000
000000
000000
ENDCHAR
STARTCHAR U+006C
ENCODING 320
SWIDTH 925 0
DWIDTH 18 0
BBX 18 14 -1 -3
BITMAP
000000
000000
000000
380000
080000
0A0000
0A0000
0A0000
080000
080000
3E0000
000000
000000
000000
ENDCHAR
STARTCHAR U+004C
ENCODING 321
SWIDTH 925 0
DWIDTH 18 0
BBX 18 14 -1 -3
BITMAP
000000
000000
000000
200000
200000
200000
300000
600000
200000
200000
3E0000
000000
000000
000000
ENDCHAR
STARTCHAR U+006C
ENCODING 322
SWIDTH 925 0
DWIDTH 18 0
BBX 18 14 -1 -3
BITMAP
000000
000000
000000
380000
080000
0C0000
080000
180000
080000
080000
3E0000
000000
000000
000000
ENDCHAR
STARTCHAR U+004E
ENCODING 323
SWIDTH 925 0
DWIDTH 18 0
BBX 18 14 -1 -3
BITMAP
040000
080000
000000
220000
220000
320000
2A0000
260000
220000
220000
220000
000000
000000
000000
ENDCHAR
STARTCHAR U+006E
ENCODING 324
SWIDTH 925 0
DWIDTH 18 0
BBX 18 14 -1 -3
BITMAP
000000
000000
040000
080000
000000
2C0000
320000
220000
220000
220000
220000
000000
000000
000000
ENDCHAR
STARTCHAR U+004E
ENCODING 325
SWIDTH 925 0
DWIDTH 18 0
BBX 18 14 -1 -3
BITMAP
000000
000000
000000
220000
220000
320000
2A0000
260000
220000
220000
320000
100000
200000
000000
ENDCHAR
STARTCHAR U+006E
ENCODING 326
SWIDTH 925 0
DWIDTH 18 0
BBX 18 14 -1 -3
BITMAP
000000
000000
000000
000000
000000
2C0000
320000
220000
220000
220000
320000
100000
200000
000000
ENDCHAR
STARTCHAR U+004E
ENCODING 327
SWIDTH 925 0
DWIDTH 18 0
BBX 18 14 -1 -3
BITMAP
140000
080000
000000
220000
220000
320000
2A0000
260000
220000
220000
220000
000000
000000
000000
ENDCHAR
STARTCHAR U+006E
ENCODING 328
SWIDTH 925 0
DWIDTH 18 0
BBX 18 14 -1 -3
BITMAP
000000
000000
140000
080000
000000
2C0000
320000
220000
220000
220000
220000
000000
000000
000000
ENDCHAR
STARTCHAR U+006E
ENCODING 329
SWIDTH 925 0
DWIDTH 18 0
BBX 18 14 -1 -3
BITMAP
000000
000000
100000
200000
000000
2C0000
320000
220000
220000
220000
220000
000000
000000
000000
ENDCHAR
STARTCHAR U+004E
ENCODING 330
SWIDTH 925 0
DWIDTH 18 0
BBX 18 14 -1 -3
BITMAP
000000
000000
000000
220000
220000
320000
2A0000
260000
220000
220000
220000
020000
0C0000
000000
ENDCHAR
STARTCHAR U+006E
ENCODING 331
SWIDTH 925 0
DWIDTH 18 0
BBX 18 14 -1 -3
BITMAP
000000
000000
000000
000000
000000
2C0000
320000
220000
220000
220000
220000
020000
0C0000
000000
ENDCHAR
STARTCHAR U+004F
ENCODING 332
SWIDTH 925 0
DWIDTH 18 0
BBX 18 14 -1 -3
BITMAP
000000
1C0000
000000
1C0000
220000
220000
220000
220000
220000
220000
1C0000
000000
000000
000000
ENDCHAR
STARTCHAR U+006F
ENCODING 333
SWIDTH 925 0
DWIDTH 18 0
BBX 18 14 -1 -3
BITMAP
000000
000000
000000
1C0000
000000
1C0000
220000
220000
220000
220000
1C0000
000000
000000
000000
ENDCHAR
STARTCHAR U+004F
ENCODING 334
SWIDTH 925 0
DWIDTH 18 0
BBX 18 14 -1 -3
BITMAP
140000
080000
000000
1C0000
220000
220000
220000
220000
220000
220000
1C0000
000000
000000
000000
ENDCHAR
STARTCHAR U+006F
ENCODING 335
SWIDTH 925 0
DWIDTH 18 0
BBX 18 14 -1 -3
BITMAP
000000
000000
140000
080000
000000
1C0000
220000
220000
220000
220000
1C0000
000000
000000
000000
ENDCHAR
STARTCHAR U+004F
ENCODING 336
SWIDTH 925 0
DWIDTH 18 0
BBX 18 14 -1 -3
BITMAP
1A0000
2C0000
000000
1C0000
220000
220000
220000
220000
220000
220000
1C0000
000000
000000
000000
ENDCHAR
STARTCHAR U+006F
ENCODING 337
SWIDTH 925 0
DWIDTH 18 0
BBX 18 14 -1 -3
BITMAP
000000
000000
1A0000
2C0000
000000
1C0000
220000
220000
220000
220000
1C0000
000000
000000
000000
ENDCHAR
STARTCHAR U+0052
ENCODING 340
SWIDTH 925 0
DWIDTH 18 0
BBX 18 14 -1 -3
BITMAP
040000
080000
000000
3C0000
220000
220000
220000
3C0000
240000
220000
220000
000000
000000
000000
ENDCHAR
STARTCHAR U+0072
ENCODING 341
SWIDTH 925 0
DWIDTH 18 0
BBX 18 14 -1 -3
BITMAP
000000
000000
040000
080000
000000
2E0000
300000
200000
200000
200000
200000
000000
000000
000000
ENDCHAR
STARTCHAR U+0052
ENCODING 342
SWIDTH 925 0
DWIDTH 18 0
BBX 18 14 -1 -3
BITMAP
000000
000000
000000
3C0000
220000
220000
220000
3C0000
240000
220000
320000
100000
200000
000000
ENDCHAR
STARTCHAR U+0072
ENCODING 343
SWIDTH 925 0
DWIDTH 18 0
BBX 18 14 -1 -3
BITMAP
000000
000000
000000
000000
000000
2E0000
300000
200000
200000
200000
300000
100000
200000
000000
ENDCHAR
STARTCHAR U+0052
ENCODING 344
SWIDTH 925 0
DWIDTH 18 0
BBX 18 14 -1 -3
BITMAP
140000
080000
000000
3C0000
220000
220000
220000
3C0000
240000
220000
220000
000000
000000
000000
ENDCHAR
STARTCHAR U+0072
ENCODING 345
SWIDTH 925 0
DWIDTH 18 0
BBX 18 14 -1 -3
BITMAP
000000
000000
140000
080000
000000
2E0000
300000
200000
200000
200000
200000
000000
000000
000000
ENDCHAR
STARTCHAR U+0053
ENCODING 346
SWIDTH 925 0
DWIDTH 18 0
BBX 18 14 -1 -3
BITMAP
040000
080000
000000
1E0000
200000
200000
180000
040000
020000
020000
3C0000
000000
000000
000000
ENDCHAR
STARTCHAR U+0073
ENCODING 347
SWIDTH 925 0
DWIDTH 18 0
BBX 18 14 -1 -3
BITMAP
000000
000000
040000
080000
000000
1E0000
200000
180000
040000
020000
3C0000
000000
000000
000000
ENDCHAR
STARTCHAR U+0053
ENCODING 348
SWIDTH 925 0
DWIDTH 18 0
BBX 18 14 -1 -3
BITMAP
080000
140000
000000
1E0000
200000
200000
180000
040000
020000
020000
3C0000
000000
000000
000000
ENDCHAR
STARTCHAR U+0073
ENCODING 349
SWIDTH 925 0
DWIDTH 18 0
BBX 18 14 -1 -3
BITMAP
000000
080000
140000
000000
000000
1E0000
200000
180000
040000
020000
3C0000
000000
000000
000000
ENDCHAR
STARTCHAR U+0053
ENCODING 350
SWIDTH 925 0
DWIDTH 18 0
BBX 18 14 -1 -3
BITMAP
000000
000000
000000
1E0000
200000
200000
180000
040000
020000
020000
3C0000
080000
100000
000000
ENDCHAR
STARTCHAR U+0073
ENCODING 351
SWIDTH 925 0
DWIDTH 18 0
BBX 18 14 -1 -3
BITMAP
000000
000000
000000
000000
000000
1E0000
200000
180000
040000
020000
3C0000
080000
100000
000000
ENDCHAR
STARTCHAR U+0053
ENCODING 352
SWIDTH 925 0
DWIDTH 18 0
BBX 18 14 -1 -3
BITMAP
140000
080000
000000
1E0000
200000
200000
180000
040000
020000
020000
3C0000
000000
000000
000000
ENDCHAR
STARTCHAR U+0073
ENCODING 353
SWIDTH 925 0
DWIDTH 18 0
BBX 18 14 -1 -3
BITMAP
000000
000000
140000
080000
000000
1E0000
200000
180000
040000
020000
3C0000
000000
000000
000000
ENDCHAR
STARTCHAR U+0054
ENCODING 354
SWIDTH 925 0
DWIDTH 18 0
BBX 18 14 -1 -3
BITMAP
000000
000000
000000
3E0000
080000
080000
080000
080000
080000
080000
0C0000
040000
080000
000000
ENDCHAR
STARTCHAR U+0074
ENCODING 355
SWIDTH 925 0
DWIDTH 18 0
BBX 18 14 -1 -3
BITMAP
000000
000000
000000
100000
100000
3E0000
100000
100000
100000
100000
0E0000
080000
100000
000000
ENDCHAR
STARTCHAR U+0054
ENCODING 356
SWIDTH 925 0
DWIDTH 18 0
BBX 18 14 -1 -3
BITMAP
140000
080000
000000
3E0000
080000
080000
080000
080000
080000
080000
080000
000000
000000
000000
ENDCHAR
STARTCHAR U+0074
ENCODING 357
SWIDTH 925 0
DWIDTH 18 0
BBX 18 14 -1 -3
BITMAP
000000
0A0000
040000
100000
100000
3E0000
100000
100000
100000
100000
0E0000
000000
000000
000000
ENDCHAR
STARTCHAR U+0054
ENCODING 358
SWIDTH 925 0
DWIDTH 18 0
BBX 18 14 -1 -3
BITMAP
000000
000000
000000
3E0000
080000
080000
1C0000
080000
080000
080000
080000
000000
000000
000000
ENDCHAR
STARTCHAR U+0074
ENCODING 359
SWIDTH 925 0
DWIDTH 18 0
BBX 18 14 -1 -3
BITMAP
000000
000000
000000
100000
100000
3E0000
100000
380000
100000
100000
0E0000
000000
000000
000000
ENDCHAR
STARTCHAR U+0055
ENCODING 360
SWIDTH 925 0
DWIDTH 18 0
BBX 18 14 -1 -3
BITMAP
1A0000
2C0000
000000
220000
220000
220000
220000
220000
220000
220000
1C0000
000000
000000
000000
ENDCHAR
STARTCHAR U+0075
ENCODING 361
SWIDTH 925 0
DWIDTH 18 0
BBX 18 14 -1 -3
BITMAP
000000
000000
1A0000
2C0000
000000
220000
220000
220000
220000
260000
1A0000
000000
000000
000000
ENDCHAR
STARTCHAR U+0055
ENCODING 362
SWIDTH 925 0
DWIDTH 18 0
BBX 18 14 -1 -3
BITMAP
000000
1C0000
000000
220000
220000
220000
220000
220000
220000
220000
1C0000
000000
000000
000000
ENDCHAR
STARTCHAR U+0075
ENCODING 363
SWIDTH 925 0
DWIDTH 18 0
BBX 18 14 -1 -3
BITMAP
000000
000000
000000
1C0000
000000
220000
220000
220000
220000
260000
1A0000
000000
000000
000000
ENDCHAR
STARTCHAR U+0055
ENCODING 364
SWIDTH 925 0
DWIDTH 18 0
BBX 18 14 -1 -3
BITMAP
140000
080000
000000
220000
220000
220000
220000
220000
220000
220000
1C0000
000000
000000
000000
ENDCHAR
STARTCHAR U+0075
ENCODING 365
SWIDTH 925 0
DWIDTH 18 0
BBX 18 14 -1 -3
BITMAP
000000
000000
140000
080000
000000
220000
220000
220000
220000
260000
1A0000
000000
000000
000000
ENDCHAR
STARTCHAR U+0055
ENCODING 366
SWIDTH 925 0
DWIDTH 18 0
BBX 18 14 -1 -3
BITMAP
080000
140000
080000
220000
220000
220000
220000
220000
220000
220000
1C0000
000000
000000
000000
ENDCHAR
STARTCHAR U+0075
ENCODING 367
SWIDTH 925 0
DWIDTH 18 0
BBX 18 14 -1 -3
BITMAP
000000
080000
140000
080000
000000
220000
220000
220000
220000
260000
1A0000
000000
000000
000000
ENDCHAR
STARTCHAR U+0055
ENCODING 368
SWIDTH 925 0
DWIDTH 18 0
BBX 18 14 -1 -3
BITMAP
1A0000
2C0000
000000
220000
220000
220000
220000
220000
220000
220000
1C0000
000000
000000
000000
ENDCHAR
STARTCHAR U+0075
ENCODING 369
SWIDTH 925 0
DWIDTH 18 0
BBX 18 14 -1 -3
BITMAP
000000
000000
1A0000
2C0000
000000
220000
220000
220000
220000
260000
1A0000
000000
000000
000000
ENDCHAR
STARTCHAR U+0055
ENCODING 370
SWIDTH 925 0
DWIDTH 18 0
BBX 18 14 -1 -3
BITMAP
000000
000000
000000
220000
220000
220000
220000
220000
220000
220000
1C0000
080000
060000
000000
ENDCHAR
STARTCHAR U+0075
ENCODING 371
SWIDTH 925 0
DWIDTH 18 0
BBX 18 14 -1 -3
BITMAP
000000
000000
000000
000000
000000
220000
220000
220000
220000
260000
1A0000
080000
060000
000000
ENDCHAR
STARTCHAR U+0057
ENCODING 372
SWIDTH 925 0
DWIDTH 18 0
BBX 18 14 -1 -3
BITMAP
080000
140000
000000
220000
220000
220000
220000
2A0000
2A0000
360000
220000
000000
000000
000000
ENDCHAR
STARTCHAR U+0077
ENCODING 373
SWIDTH 925 0
DWIDTH 18 0
BBX 18 14 -1 -3
BITMAP
000000
000000
080000
140000
000000
220000
220000
2A0000
2A0000
2A0000
360000
000000
000000
000000
ENDCHAR
STARTCHAR U+0059
ENCODING 374
SWIDTH 925 0
DWIDTH 18 0
BBX 18 14 -1 -3
BITMAP
080000
140000
000000
220000
220000
140000
140000
080000
080000
080000
080000
000000
000000
000000
ENDCHAR
STARTCHAR U+0079
ENCODING 375
SWIDTH 925 0
DWIDTH 18 0
BBX 18 14 -1 -3
BITMAP
000000
000000
080000
140000
000000
220000
220000
220000
140000
140000
080000
080000
300000
000000
ENDCHAR
STARTCHAR U+0059
ENCODING 376
SWIDTH 925 0
DWIDTH 18 0
BBX 18 14 -1 -3
BITMAP
140000
140000
000000
220000
220000
140000
140000
080000
080000
080000
080000
000000
000000
000000
ENDCHAR
STARTCHAR U+005A
ENCODING 377
SWIDTH 925 0
DWIDTH 18 0
BBX 18 14 -1 -3
BITMAP
040000
080000
000000
3E0000
040000
040000
080000
080000
100000
100000
3E0000
000000
000000
000000
ENDCHAR
STARTCHAR U+007A
ENCODING 378
SWIDTH 925 0
DWIDTH 18 0
BBX 18 14 -1 -3
BITMAP
000000
000000
040000
080000
000000
3E0000
040000
080000
080000
100000
3E0000
000000
000000
000000
ENDCHAR
STARTCHAR U+005A
ENCODING 379
SWIDTH 925 0
DWIDTH 18 0
BBX 18 14 -1 -3
BITMAP
080000
080000
000000
3E0000
040000
040000
080000
080000
100000
100000
3E0000
000000
000000
000000
ENDCHAR
STARTCHAR U+007A
ENCODING 380
SWIDTH 925 0
DWIDTH 18 0
BBX 18 14 -1 -3
BITMAP
000000
000000
080000
080000
000000
3E0000
040000
080000
080000
100000
3E0000
000000
000000
000000
ENDCHAR
STARTCHAR U+005A
ENCODING 381
SWIDTH 925 0
DWIDTH 18 0
BBX 18 14 -1 -3
BITMAP
140000
080000
000000
3E0000
040000
040000
080000
080000
100000
100000
3E0000
000000
000000
000000
ENDCHAR
STARTCHAR U+007A
ENCODING 382
SWIDTH 925 0
DWIDTH 18 0
BBX 18 14 -1 -3
BITMAP
000000
000000
140000
080000
000000
3E0000
040000
080000
080000
100000
3E0000
000000
000000
000000
ENDCHAR
STARTCHAR char384
ENCODING 384
SWIDTH 925 0
DWIDTH 18 0
BBX 18 14 -1 -3
BITMAP
000000
000000
060000
080000
3C0000
660000
210000
250000
310000
000000
010000
000000
000000
010000
ENDCHAR
STARTCHAR char960
ENCODING 960
SWIDTH 925 0
DWIDTH 18 0
BBX 18 14 -1 -3
BITMAP
000000
000000
000000
000000
000000
7E0000
240000
240000
240000
240000
240000
000000
000000
000000
ENDCHAR
STARTCHAR char8226
ENCODING 8226
SWIDTH 925 0
DWIDTH 18 0
BBX 18 14 -1 -3
BITMAP
000000
000000
000000
000000
000000
180000
3C0000
3C0000
180000
000000
000000
000000
000000
000000
ENDCHAR
STARTCHAR char160
ENCODING 8240
SWIDTH 925 0
DWIDTH 18 0
BBX 18 14 -1 -3
BITMAP
000000
000000
000000
000000
0C0000
0C0000
1E0000
2D0000
2D0000
210000
1E0000
000000
000000
000000
ENDCHAR
STARTCHAR char161
ENCODING 8241
SWIDTH 925 0
DWIDTH 18 0
BBX 18 14 -1 -3
BITMAP
000000
000000
000000
000000
060000
0F0000
090000
090000
090000
090000
0F0000
000000
000000
000000
ENDCHAR
STARTCHAR char162
ENCODING 8242
SWIDTH 925 0
DWIDTH 18 0
BBX 18 14 -1 -3
BITMAP
000000
000000
000000
000000
000000
000000
000000
0F0000
000000
060000
060000
000000
000000
000000
ENDCHAR
STARTCHAR char163
ENCODING 8243
SWIDTH 925 0
DWIDTH 18 0
BBX 18 14 -1 -3
BITMAP
000000
000000
000000
000000
000000
3F0000
000000
1E0000
000000
0C0000
0C0000
000000
000000
000000
ENDCHAR
STARTCHAR char164
ENCODING 8244
SWIDTH 925 0
DWIDTH 18 0
BBX 18 14 -1 -3
BITMAP
000000
000000
000000
000000
1E0000
330000
2D0000
2D0000
330000
1E0000
210000
000000
000000
000000
ENDCHAR
STARTCHAR char165
ENCODING 8245
SWIDTH 925 0
DWIDTH 18 0
BBX 18 14 -1 -3
BITMAP
000000
000000
000000
1E0000
330000
3F0000
330000
330000
330000
330000
1E0000
000000
000000
000000
ENDCHAR
STARTCHAR char166
ENCODING 8246
SWIDTH 925 0
DWIDTH 18 0
BBX 18 14 -1 -3
BITMAP
000000
000000
000000
000000
120000
120000
3F0000
3F0000
1E0000
0C0000
0C0000
000000
000000
000000
ENDCHAR
STARTCHAR char167
ENCODING 8247
SWIDTH 925 0
DWIDTH 18 0
BBX 18 14 -1 -3
BITMAP
000000
000000
000000
1E0000
330000
330000
330000
330000
3F0000
330000
1E0000
000000
000000
000000
ENDCHAR
STARTCHAR char168
ENCODING 8248
SWIDTH 925 0
DWIDTH 18 0
BBX 18 14 -1 -3
BITMAP
000000
000000
000000
000000
3F0000
2D0000
210000
3F0000
2D0000
210000
3F0000
000000
000000
000000
ENDCHAR
STARTCHAR char169
ENCODING 8249
SWIDTH 925 0
DWIDTH 18 0
BBX 18 14 -1 -3
BITMAP
000000
000000
000000
000000
0C0000
1E0000
1E0000
0C0000
1E0000
3F0000
3F0000
000000
000000
000000
ENDCHAR
STARTCHAR char170
ENCODING 8250
SWIDTH 925 0
DWIDTH 18 0
BBX 18 14 -1 -3
BITMAP
000000
000000
000000
000000
090000
1C0000
1D0000
140000
220000
220000
1C0000
000000
000000
000000
ENDCHAR
STARTCHAR char171
ENCODING 8251
SWIDTH 925 0
DWIDTH 18 0
BBX 18 14 -1 -3
BITMAP
000000
000000
000000
000000
0A0000
140000
280000
500000
280000
140000
0A0000
000000
000000
000000
ENDCHAR
STARTCHAR char172
ENCODING 8252
SWIDTH 925 0
DWIDTH 18 0
BBX 18 14 -1 -3
BITMAP
000000
000000
000000
000000
000000
000000
010000
010000
050000
050000
050000
000000
000000
000000
ENDCHAR
STARTCHAR char173
ENCODING 8253
SWIDTH 925 0
DWIDTH 18 0
BBX 18 14 -1 -3
BITMAP
000000
000000
000000
000000
010000
010000
050000
050000
150000
150000
150000
000000
000000
000000
ENDCHAR
STARTCHAR char174
ENCODING 8254
SWIDTH 925 0
DWIDTH 18 0
BBX 18 14 -1 -3
BITMAP
000000
000000
000000
000000
000000
3C0000
220000
390000
250000
350000
3F0000
000000
000000
000000
ENDCHAR
STARTCHAR char175
ENCODING 8255
SWIDTH 925 0
DWIDTH 18 0
BBX 18 14 -1 -3
BITMAP
000000
000000
000000
000000
000000
330000
2D0000
1E0000
1E0000
2D0000
330000
000000
000000
000000
ENDCHAR
STARTCHAR char176
ENCODING 8256
SWIDTH 925 0
DWIDTH 18 0
BBX 18 14 -1 -3
BITMAP
000000
000000
000000
100000
280000
280000
100000
000000
000000
000000
000000
000000
000000
000000
ENDCHAR
STARTCHAR char177
ENCODING 8257
SWIDTH 925 0
DWIDTH 18 0
BBX 18 14 -1 -3
BITMAP
000000
000000
000000
000000
0C0000
0F0000
0C0000
0F0000
0C0000
1E0000
0C0000
000000
000000
000000
ENDCHAR
STARTCHAR char178
ENCODING 8258
SWIDTH 925 0
DWIDTH 18 0
BBX 18 14 -1 -3
BITMAP
000000
000000
000000
000000
0E0000
110000
110000
110000
1F0000
1F0000
1F0000
000000
000000
000000
ENDCHAR
STARTCHAR char179
ENCODING 8259
SWIDTH 925 0
DWIDTH 18 0
BBX 18 14 -1 -3
BITMAP
000000
000000
000000
000000
000000
210000
1E0000
1E0000
1E0000
1E0000
210000
000000
000000
000000
ENDCHAR
STARTCHAR char180
ENCODING 8260
SWIDTH 925 0
DWIDTH 18 0
BBX 18 14 -1 -3
BITMAP
000000
000000
000000
0E0000
0E0000
000000
1E0000
0E0000
0E0000
0E0000
1F0000
000000
000000
000000
ENDCHAR
STARTCHAR char181
ENCODING 8261
SWIDTH 925 0
DWIDTH 18 0
BBX 18 14 -1 -3
BITMAP
000000
000000
000000
020000
040000
0C0000
180000
1F0000
3E0000
060000
0C0000
080000
100000
000000
ENDCHAR
STARTCHAR char182
ENCODING 8262
SWIDTH 925 0
DWIDTH 18 0
BBX 18 14 -1 -3
BITMAP
000000
000000
000000
000000
000000
1E0000
370000
370000
310000
3F0000
1E0000
000000
000000
000000
ENDCHAR
STARTCHAR char183
ENCODING 8263
SWIDTH 925 0
DWIDTH 18 0
BBX 18 14 -1 -3
BITMAP
000000
000000
000000
000000
1C0000
360000
770000
710000
7F0000
3E0000
1C0000
000000
000000
000000
ENDCHAR
STARTCHAR char184
ENCODING 8264
SWIDTH 925 0
DWIDTH 18 0
BBX 18 14 -1 -3
BITMAP
000000
000000
000000
000000
000000
0C0000
160000
370000
310000
1E0000
0C0000
000000
000000
000000
ENDCHAR
STARTCHAR char185
ENCODING 8265
SWIDTH 925 0
DWIDTH 18 0
BBX 18 14 -1 -3
BITMAP
000000
000000
000000
000000
0C0000
0C0000
1E0000
1E0000
330000
330000
210000
000000
000000
000000
ENDCHAR
STARTCHAR char186
ENCODING 8266
SWIDTH 925 0
DWIDTH 18 0
BBX 18 14 -1 -3
BITMAP
000000
000000
000000
000000
000000
1E0000
370000
3E0000
3C0000
3F0000
1E0000
000000
000000
000000
ENDCHAR
STARTCHAR char187
ENCODING 8267
SWIDTH 925 0
DWIDTH 18 0
BBX 18 14 -1 -3
BITMAP
000000
000000
000000
000000
500000
280000
140000
0A0000
140000
280000
500000
000000
000000
000000
ENDCHAR
STARTCHAR char188
ENCODING 8268
SWIDTH 925 0
DWIDTH 18 0
BBX 18 14 -1 -3
BITMAP
000000
000000
000000
000000
040000
260000
150000
0E0000
150000
260000
040000
000000
000000
000000
ENDCHAR
STARTCHAR char189
ENCODING 8269
SWIDTH 925 0
DWIDTH 18 0
BBX 18 14 -1 -3
BITMAP
000000
000000
000000
1E0000
3F0000
210000
290000
250000
290000
210000
1E0000
000000
000000
000000
ENDCHAR
STARTCHAR char190
ENCODING 8270
SWIDTH 925 0
DWIDTH 18 0
BBX 18 14 -1 -3
BITMAP
000000
000000
000000
1E0000
3F0000
210000
2D0000
210000
2D0000
210000
1E0000
000000
000000
000000
ENDCHAR
STARTCHAR char191
ENCODING 8271
SWIDTH 925 0
DWIDTH 18 0
BBX 18 14 -1 -3
BITMAP
000000
000000
000000
000000
0C0000
3F0000
210000
2D0000
2D0000
210000
3F0000
000000
000000
000000
ENDCHAR
STARTCHAR char192
ENCODING 8272
SWIDTH 925 0
DWIDTH 18 0
BBX 18 14 -1 -3
BITMAP
000000
000000
000000
000000
000000
010000
050000
350000
350000
050000
010000
000000
000000
000000
ENDCHAR
STARTCHAR char193
ENCODING 8273
SWIDTH 925 0
DWIDTH 18 0
BBX 18 14 -1 -3
BITMAP
000000
000000
000000
000000
000000
000000
010000
0D0000
0D0000
010000
000000
000000
000000
000000
ENDCHAR
STARTCHAR char194
ENCODING 8274
SWIDTH 925 0
DWIDTH 18 0
BBX 18 14 -1 -3
BITMAP
000000
000000
000000
000000
000000
1C0000
7F0000
7C0000
7F0000
1C0000
000000
000000
000000
000000
ENDCHAR
STARTCHAR char195
ENCODING 8275
SWIDTH 925 0
DWIDTH 18 0
BBX 18 14 -1 -3
BITMAP
000000
000000
000000
000000
000000
020000
060000
1D0000
1A0000
040000
0A0000
000000
000000
000000
ENDCHAR
STARTCHAR char196
ENCODING 8276
SWIDTH 925 0
DWIDTH 18 0
BBX 18 14 -1 -3
BITMAP
000000
000000
000000
000000
000000
010000
030000
0F0000
0F0000
030000
010000
000000
000000
000000
ENDCHAR
STARTCHAR char197
ENCODING 8277
SWIDTH 925 0
DWIDTH 18 0
BBX 18 14 -1 -3
BITMAP
000000
000000
000000
000000
000000
040000
0C0000
3D0000
3D0000
0C0000
040000
000000
000000
000000
ENDCHAR
STARTCHAR char198
ENCODING 8278
SWIDTH 925 0
DWIDTH 18 0
BBX 18 14 -1 -3
BITMAP
000000
000000
000000
000000
000000
150000
000000
1F0000
1F0000
000000
150000
000000
000000
000000
ENDCHAR
STARTCHAR char199
ENCODING 8279
SWIDTH 925 0
DWIDTH 18 0
BBX 18 14 -1 -3
BITMAP
000000
000000
000000
000000
000000
390000
1F0000
130000
320000
3E0000
270000
000000
000000
000000
ENDCHAR
STARTCHAR char200
ENCODING 8280
SWIDTH 925 0
DWIDTH 18 0
BBX 18 14 -1 -3
BITMAP
000000
000000
000000
000000
000000
3F0000
370000
370000
310000
3F0000
3F0000
000000
000000
000000
ENDCHAR
STARTCHAR char201
ENCODING 8281
SWIDTH 925 0
DWIDTH 18 0
BBX 18 14 -1 -3
BITMAP
000000
000000
000000
000000
3E0000
770000
770000
710000
7F0000
7F0000
3E0000
000000
000000
000000
ENDCHAR
STARTCHAR char202
ENCODING 8282
SWIDTH 925 0
DWIDTH 18 0
BBX 18 14 -1 -3
BITMAP
000000
000000
000000
000000
7F0000
3E0000
5D0000
6B0000
770000
7F0000
7F0000
000000
000000
000000
ENDCHAR
STARTCHAR char203
ENCODING 8283
SWIDTH 925 0
DWIDTH 18 0
BBX 18 14 -1 -3
BITMAP
000000
000000
000000
000000
7F0000
410000
630000
550000
490000
410000
7F0000
000000
000000
000000
ENDCHAR
STARTCHAR char204
ENCODING 8284
SWIDTH 925 0
DWIDTH 18 0
BBX 18 14 -1 -3
BITMAP
000000
000000
000000
000000
000000
7F0000
3E0000
5D0000
630000
7F0000
7F0000
000000
000000
000000
ENDCHAR
STARTCHAR char205
ENCODING 8285
SWIDTH 925 0
DWIDTH 18 0
BBX 18 14 -1 -3
BITMAP
000000
000000
000000
000000
000000
7F0000
410000
630000
5D0000
410000
7F0000
000000
000000
000000
ENDCHAR
STARTCHAR char206
ENCODING 8286
SWIDTH 925 0
DWIDTH 18 0
BBX 18 14 -1 -3
BITMAP
000000
000000
000000
000000
550000
000000
7F0000
7F0000
7F0000
000000
550000
000000
000000
000000
ENDCHAR
STARTCHAR char207
ENCODING 8287
SWIDTH 925 0
DWIDTH 18 0
BBX 18 14 -1 -3
BITMAP
000000
000000
000000
000000
040000
050000
150000
160000
0C0000
040000
040000
000000
000000
000000
ENDCHAR
STARTCHAR char208
ENCODING 8288
SWIDTH 925 0
DWIDTH 18 0
BBX 18 14 -1 -3
BITMAP
000000
000000
000000
000000
7F0000
5D0000
6B0000
770000
6B0000
5D0000
7F0000
000000
000000
000000
ENDCHAR
STARTCHAR char209
ENCODING 8289
SWIDTH 925 0
DWIDTH 18 0
BBX 18 14 -1 -3
BITMAP
000000
000000
000000
000000
6B0000
630000
1C0000
5D0000
1C0000
630000
6B0000
000000
000000
000000
ENDCHAR
STARTCHAR char210
ENCODING 8290
SWIDTH 925 0
DWIDTH 18 0
BBX 18 14 -1 -3
BITMAP
000000
000000
000000
100000
030000
470000
0E0000
340000
480000
480000
300000
000000
000000
000000
ENDCHAR
STARTCHAR char211
ENCODING 8291
SWIDTH 925 0
DWIDTH 18 0
BBX 18 14 -1 -3
BITMAP
000000
000000
000000
000000
000000
440000
7E0000
7F0000
7F0000
3E0000
040000
000000
000000
000000
ENDCHAR
STARTCHAR char212
ENCODING 8292
SWIDTH 925 0
DWIDTH 18 0
BBX 18 14 -1 -3
BITMAP
000000
000000
000000
000000
000000
110000
3F0000
7F0000
7F0000
3E0000
100000
000000
000000
000000
ENDCHAR
STARTCHAR char213
ENCODING 8293
SWIDTH 925 0
DWIDTH 18 0
BBX 18 14 -1 -3
BITMAP
000000
000000
000000
000000
000000
100000
3E0000
7F0000
7F0000
3F0000
110000
000000
000000
000000
ENDCHAR
STARTCHAR char214
ENCODING 8294
SWIDTH 925 0
DWIDTH 18 0
BBX 18 14 -1 -3
BITMAP
000000
000000
000000
000000
000000
040000
3E0000
7F0000
7F0000
7E0000
440000
000000
000000
000000
ENDCHAR
STARTCHAR char215
ENCODING 8295
SWIDTH 925 0
DWIDTH 18 0
BBX 18 14 -1 -3
BITMAP
000000
000000
000000
000000
000000
220000
140000
080000
140000
220000
000000
000000
000000
000000
ENDCHAR
STARTCHAR char216
ENCODING 8296
SWIDTH 925 0
DWIDTH 18 0
BBX 18 14 -1 -3
BITMAP
000000
000000
000000
000000
000000
040000
7E0000
7F0000
7F0000
7E0000
040000
000000
000000
000000
ENDCHAR
STARTCHAR char217
ENCODING 8297
SWIDTH 925 0
DWIDTH 18 0
BBX 18 14 -1 -3
BITMAP
000000
000000
000000
000000
000000
100000
3F0000
7F0000
7F0000
3F0000
100000
000000
000000
000000
ENDCHAR
STARTCHAR char218
ENCODING 8298
SWIDTH 925 0
DWIDTH 18 0
BBX 18 14 -1 -3
BITMAP
000000
000000
000000
000000
1E0000
1E0000
1E0000
1E0000
3F0000
1E0000
0C0000
000000
000000
000000
ENDCHAR
STARTCHAR char219
ENCODING 8299
SWIDTH 925 0
DWIDTH 18 0
BBX 18 14 -1 -3
BITMAP
000000
000000
000000
000000
0C0000
1E0000
3F0000
1E0000
1E0000
1E0000
1E0000
000000
000000
000000
ENDCHAR
STARTCHAR char220
ENCODING 8300
SWIDTH 925 0
DWIDTH 18 0
BBX 18 14 -1 -3
BITMAP
000000
000000
000000
000000
0C0000
1E0000
3F0000
1E0000
1E0000
1E0000
3C0000
000000
000000
000000
ENDCHAR
STARTCHAR char221
ENCODING 8301
SWIDTH 925 0
DWIDTH 18 0
BBX 18 14 -1 -3
BITMAP
000000
000000
000000
000000
3C0000
1E0000
1E0000
1E0000
3F0000
1E0000
0C0000
000000
000000
000000
ENDCHAR
STARTCHAR char222
ENCODING 8302
SWIDTH 925 0
DWIDTH 18 0
BBX 18 14 -1 -3
BITMAP
000000
000000
000000
000000
0C0000
1E0000
3F0000
1E0000
1E0000
1E0000
0F0000
000000
000000
000000
ENDCHAR
STARTCHAR char223
ENCODING 8303
SWIDTH 925 0
DWIDTH 18 0
BBX 18 14 -1 -3
BITMAP
000000
000000
000000
000000
0F0000
1E0000
1E0000
1E0000
3F0000
1E0000
0C0000
000000
000000
000000
ENDCHAR
STARTCHAR char224
ENCODING 8304
SWIDTH 925 0
DWIDTH 18 0
BBX 18 14 -1 -3
BITMAP
000000
000000
000000
000000
3E0000
410000
410000
410000
770000
770000
360000
000000
000000
000000
ENDCHAR
STARTCHAR char225
ENCODING 8305
SWIDTH 925 0
DWIDTH 18 0
BBX 18 14 -1 -3
BITMAP
000000
000000
000000
000000
0C0000
0C0000
2D0000
210000
1E0000
0C0000
1E0000
000000
000000
000000
ENDCHAR
STARTCHAR char226
ENCODING 8306
SWIDTH 925 0
DWIDTH 18 0
BBX 18 14 -1 -3
BITMAP
000000
000000
000000
000000
000000
110000
130000
170000
170000
130000
110000
000000
000000
000000
ENDCHAR
STARTCHAR char227
ENCODING 8307
SWIDTH 925 0
DWIDTH 18 0
BBX 18 14 -1 -3
BITMAP
000000
000000
000000
000000
000000
090000
1B0000
3F0000
3F0000
1B0000
090000
000000
000000
000000
ENDCHAR
STARTCHAR char228
ENCODING 8308
SWIDTH 925 0
DWIDTH 18 0
BBX 18 14 -1 -3
BITMAP
000000
000000
000000
000000
000000
1E0000
3F0000
3F0000
3F0000
3F0000
1E0000
000000
000000
000000
ENDCHAR
STARTCHAR char229
ENCODING 8309
SWIDTH 925 0
DWIDTH 18 0
BBX 18 14 -1 -3
BITMAP
000000
000000
000000
000000
000000
3F0000
3F0000
3F0000
3F0000
3F0000
3F0000
000000
000000
000000
ENDCHAR
STARTCHAR char230
ENCODING 8310
SWIDTH 925 0
DWIDTH 18 0
BBX 18 14 -1 -3
BITMAP
000000
000000
000000
000000
000000
040000
060000
070000
070000
060000
040000
000000
000000
000000
ENDCHAR
STARTCHAR char231
ENCODING 8311
SWIDTH 925 0
DWIDTH 18 0
BBX 18 14 -1 -3
BITMAP
000000
000000
000000
000000
000000
1B0000
1B0000
1B0000
1B0000
1B0000
1B0000
000000
000000
000000
ENDCHAR
STARTCHAR char232
ENCODING 8312
SWIDTH 925 0
DWIDTH 18 0
BBX 18 14 -1 -3
BITMAP
000000
000000
000000
000000
000000
240000
360000
3F0000
3F0000
360000
240000
000000
000000
000000
ENDCHAR
STARTCHAR char233
ENCODING 8313
SWIDTH 925 0
DWIDTH 18 0
BBX 18 14 -1 -3
BITMAP
000000
000000
000000
000000
000000
110000
190000
1D0000
1D0000
190000
110000
000000
000000
000000
ENDCHAR
STARTCHAR char234
ENCODING 8314
SWIDTH 925 0
DWIDTH 18 0
BBX 18 14 -1 -3
BITMAP
000000
000000
000000
000000
1F0000
1F0000
110000
110000
330000
770000
660000
000000
000000
000000
ENDCHAR
STARTCHAR char235
ENCODING 8315
SWIDTH 925 0
DWIDTH 18 0
BBX 18 14 -1 -3
BITMAP
000000
000000
000000
000000
020000
060000
3D0000
3A0000
340000
0A0000
120000
000000
000000
000000
ENDCHAR
STARTCHAR char236
ENCODING 8316
SWIDTH 925 0
DWIDTH 18 0
BBX 18 14 -1 -3
BITMAP
000000
000000
000000
000000
010000
030000
1F0000
1F0000
1F0000
030000
010000
000000
000000
000000
ENDCHAR
STARTCHAR char237
ENCODING 8317
SWIDTH 925 0
DWIDTH 18 0
BBX 18 14 -1 -3
BITMAP
000000
000000
000000
000000
040000
0C0000
7D0000
7D0000
7D0000
0C0000
040000
000000
000000
000000
ENDCHAR
STARTCHAR char238
ENCODING 8318
SWIDTH 925 0
DWIDTH 18 0
BBX 18 14 -1 -3
BITMAP
000000
000000
000000
000000
040000
1F0000
110000
110000
110000
110000
1F0000
000000
000000
000000
ENDCHAR
STARTCHAR char239
ENCODING 8319
SWIDTH 925 0
DWIDTH 18 0
BBX 18 14 -1 -3
BITMAP
000000
000000
000000
000000
040000
1F0000
110000
110000
150000
110000
1F0000
000000
000000
000000
ENDCHAR
STARTCHAR char240
ENCODING 8320
SWIDTH 925 0
DWIDTH 18 0
BBX 18 14 -1 -3
BITMAP
000000
000000
000000
000000
040000
1F0000
110000
150000
150000
110000
1F0000
000000
000000
000000
ENDCHAR
STARTCHAR char241
ENCODING 8321
SWIDTH 925 0
DWIDTH 18 0
BBX 18 14 -1 -3
BITMAP
000000
000000
000000
000000
000000
7E0000
420000
430000
420000
7E0000
000000
000000
000000
000000
ENDCHAR
STARTCHAR char242
ENCODING 8322
SWIDTH 925 0
DWIDTH 18 0
BBX 18 14 -1 -3
BITMAP
000000
000000
000000
000000
000000
7E0000
420000
530000
420000
7E0000
000000
000000
000000
000000
ENDCHAR
STARTCHAR char243
ENCODING 8323
SWIDTH 925 0
DWIDTH 18 0
BBX 18 14 -1 -3
BITMAP
000000
000000
000000
000000
000000
7E0000
420000
5B0000
420000
7E0000
000000
000000
000000
000000
ENDCHAR
STARTCHAR char244
ENCODING 8324
SWIDTH 925 0
DWIDTH 18 0
BBX 18 14 -1 -3
BITMAP
000000
000000
000000
7F0000
7F0000
630000
630000
630000
630000
7F0000
7F0000
000000
000000
000000
ENDCHAR
STARTCHAR char245
ENCODING 8325
SWIDTH 925 0
DWIDTH 18 0
BBX 18 14 -1 -3
BITMAP
000000
000000
000000
770000
770000
770000
770000
000000
6B0000
6B0000
6B0000
000000
000000
000000
ENDCHAR
STARTCHAR char246
ENCODING 8326
SWIDTH 925 0
DWIDTH 18 0
BBX 18 14 -1 -3
BITMAP
000000
000000
000000
770000
770000
700000
770000
070000
700000
770000
770000
000000
000000
000000
ENDCHAR
STARTCHAR char247
ENCODING 8327
SWIDTH 925 0
DWIDTH 18 0
BBX 18 14 -1 -3
BITMAP
000000
000000
000000
000000
150000
000000
1F0000
1F0000
1F0000
000000
150000
000000
000000
000000
ENDCHAR
STARTCHAR char248
ENCODING 8328
SWIDTH 925 0
DWIDTH 18 0
BBX 18 14 -1 -3
BITMAP
000000
000000
000000
770000
770000
770000
770000
700000
750000
710000
750000
000000
000000
000000
ENDCHAR
STARTCHAR char249
ENCODING 8329
SWIDTH 925 0
DWIDTH 18 0
BBX 18 14 -1 -3
BITMAP
000000
000000
000000
770000
770000
770000
770000
700000
750000
740000
750000
000000
000000
000000
ENDCHAR
STARTCHAR char250
ENCODING 8330
SWIDTH 925 0
DWIDTH 18 0
BBX 18 14 -1 -3
BITMAP
000000
000000
000000
6B0000
6B0000
000000
6B0000
6B0000
000000
6B0000
6B0000
000000
000000
000000
ENDCHAR
STARTCHAR char251
ENCODING 8331
SWIDTH 925 0
DWIDTH 18 0
BBX 18 14 -1 -3
BITMAP
000000
000000
000000
7F0000
7F0000
7F0000
7F0000
000000
7F0000
000000
7F0000
000000
000000
000000
ENDCHAR
STARTCHAR char252
ENCODING 8332
SWIDTH 925 0
DWIDTH 18 0
BBX 18 14 -1 -3
BITMAP
000000
000000
000000
7F0000
7F0000
7F0000
7F0000
000000
6B0000
6B0000
6B0000
000000
000000
000000
ENDCHAR
STARTCHAR char253
ENCODING 8333
SWIDTH 925 0
DWIDTH 18 0
BBX 18 14 -1 -3
BITMAP
000000
000000
000000
7B0000
7B0000
7B0000
7B0000
030000
7F0000
7F0000
7F0000
000000
000000
000000
ENDCHAR
STARTCHAR char254
ENCODING 8334
SWIDTH 925 0
DWIDTH 18 0
BBX 18 14 -1 -3
BITMAP
000000
000000
000000
770000
770000
700000
770000
770000
700000
770000
770000
000000
000000
000000
ENDCHAR
STARTCHAR char255
ENCODING 8335
SWIDTH 925 0
DWIDTH 18 0
BBX 18 14 -1 -3
BITMAP
000000
000000
000000
7F0000
7F0000
7F0000
7F0000
7F0000
7F0000
7F0000
7F0000
000000
000000
000000
ENDCHAR
STARTCHAR char340
ENCODING 8336
SWIDTH 925 0
DWIDTH 18 0
BBX 18 14 -1 -3
BITMAP
000000
000000
000000
1E0000
330000
7B8000
7A8000
528000
538000
270000
1E0000
000000
000000
000000
ENDCHAR
STARTCHAR char256
ENCODING 8337
SWIDTH 925 0
DWIDTH 18 0
BBX 18 14 -1 -3
BITMAP
000000
000000
000000
300000
760000
6F0000
2F0000
760000
6F0000
1F8000
1F8000
000000
000000
000000
ENDCHAR
STARTCHAR char256
ENCODING 8338
SWIDTH 925 0
DWIDTH 18 0
BBX 18 14 -1 -3
BITMAP
000000
000000
000000
000000
7FC000
404000
504000
484000
564000
404000
7FC000
000000
000000
000000
ENDCHAR
STARTCHAR char256
ENCODING 8339
SWIDTH 925 0
DWIDTH 18 0
BBX 18 14 -1 -3
BITMAP
000000
000000
7C0000
460000
470000
478000
408000
408000
408000
408000
408000
7F8000
000000
000000
ENDCHAR
STARTCHAR char256
ENCODING 8340
SWIDTH 925 0
DWIDTH 18 0
BBX 18 14 -1 -3
BITMAP
000000
000000
000000
3F0000
7F8000
408000
508000
488000
508000
408000
3F0000
000000
000000
000000
ENDCHAR
STARTCHAR char252
ENCODING 8341
SWIDTH 925 0
DWIDTH 18 0
BBX 18 14 -1 -3
BITMAP
000000
000000
000000
7F0000
5A8000
5A8000
5E8000
408000
408000
408000
7F8000
000000
000000
000000
ENDCHAR
STARTCHAR char304
ENCODING 8342
SWIDTH 925 0
DWIDTH 18 0
BBX 18 14 -1 -3
BITMAP
000000
000000
000000
1E0000
3B0000
738000
7F8000
700000
7C0000
3F0000
1E0000
000000
000000
000000
ENDCHAR
STARTCHAR char316
ENCODING 8343
SWIDTH 925 0
DWIDTH 18 0
BBX 18 14 -1 -3
BITMAP
000000
000000
040000
040000
0E0000
0E0000
1F0000
1F0000
3B8000
318000
71C000
404000
000000
000000
ENDCHAR
STARTCHAR AE
ENCODING 8344
SWIDTH 925 0
DWIDTH 18 0
BBX 18 14 -1 -3
BITMAP
000000
000000
000000
7F8000
408000
408000
408000
408000
7F8000
0C0000
7F8000
000000
000000
000000
ENDCHAR
STARTCHAR char256
ENCODING 8345
SWIDTH 925 0
DWIDTH 18 0
BBX 18 14 -1 -3
BITMAP
000000
000000
000000
7B8000
7B8000
780000
038000
7B8000
780000
7B8000
7B8000
000000
000000
000000
ENDCHAR
STARTCHAR char256
ENCODING 8346
SWIDTH 925 0
DWIDTH 18 0
BBX 18 14 -1 -3
BITMAP
000000
000000
000000
7C0000
7C0000
7C0000
7D8000
7D8000
018000
0F8000
0F8000
000000
000000
000000
ENDCHAR
STARTCHAR char256
ENCODING 8347
SWIDTH 925 0
DWIDTH 18 0
BBX 18 14 -1 -3
BITMAP
000000
000000
000000
7F8000
7F8000
7F8000
7F8000
7F8000
7F8000
7F8000
7F8000
000000
000000
000000
ENDCHAR
STARTCHAR char256
ENCODING 8348
SWIDTH 925 0
DWIDTH 18 0
BBX 18 14 -1 -3
BITMAP
000000
000000
000000
778000
778000
778000
778000
000000
6D8000
6D8000
6D8000
000000
000000
000000
ENDCHAR
STARTCHAR char256
ENCODING 8349
SWIDTH 925 0
DWIDTH 18 0
BBX 18 14 -1 -3
BITMAP
000000
000000
000000
6D8000
6D8000
000000
6D8000
6D8000
000000
6D8000
6D8000
000000
000000
000000
ENDCHAR
STARTCHAR char144
ENCODING 8350
SWIDTH 925 0
DWIDTH 18 0
BBX 18 14 -1 -3
BITMAP
000000
000000
000000
1F8000
1F8000
108000
108000
108000
108000
738000
738000
000000
000000
000000
ENDCHAR
STARTCHAR char319
ENCODING 8351
SWIDTH 925 0
DWIDTH 18 0
BBX 18 14 -1 -3
BITMAP
000000
000000
000000
6D8000
408000
1E0000
5E8000
5E8000
1E0000
408000
6D8000
000000
000000
000000
ENDCHAR
STARTCHAR char308
ENCODING 8352
SWIDTH 925 0
DWIDTH 18 0
BBX 18 14 -1 -3
BITMAP
000000
000000
000000
1C0000
1C0000
1C0000
1C0000
7F0000
3E0000
1C0000
080000
000000
000000
000000
ENDCHAR
STARTCHAR char308
ENCODING 8353
SWIDTH 925 0
DWIDTH 18 0
BBX 18 14 -1 -3
BITMAP
000000
000000
000000
080000
1C0000
3E0000
7F0000
1C0000
1C0000
1C0000
1C0000
000000
000000
000000
ENDCHAR
STARTCHAR char256
ENCODING 8354
SWIDTH 925 0
DWIDTH 18 0
BBX 18 14 -1 -3
BITMAP
000000
000000
000000
3F0000
7F8000
7F8000
7F8000
7F8000
3F0000
060000
0C0000
000000
000000
000000
ENDCHAR
STARTCHAR char305
ENCODING 8355
SWIDTH 925 0
DWIDTH 18 0
BBX 18 14 -1 -3
BITMAP
000000
000000
000000
000000
7FC000
5F4000
6EC000
75C000
6AC000
5F4000
7FC000
000000
000000
000000
ENDCHAR
STARTCHAR char278
ENCODING 8356
SWIDTH 925 0
DWIDTH 18 0
BBX 18 14 -1 -3
BITMAP
000000
000000
000000
080000
190000
788000
7A8000
7A8000
788000
190000
080000
000000
000000
000000
ENDCHAR
STARTCHAR char340
ENCODING 8357
SWIDTH 925 0
DWIDTH 18 0
BBX 18 14 -1 -3
BITMAP
000000
000000
000000
1E0000
370000
778000
778000
708000
7F8000
3F0000
1E0000
000000
000000
000000
ENDCHAR
STARTCHAR char293
ENCODING 8358
SWIDTH 925 0
DWIDTH 18 0
BBX 18 14 -1 -3
BITMAP
000000
000000
000000
000000
000000
000000
380000
380000
380000
000000
000000
000000
000000
000000
ENDCHAR
STARTCHAR multiply
ENCODING 8359
SWIDTH 925 0
DWIDTH 18 0
BBX 18 14 -1 -3
BITMAP
000000
000000
000000
000000
000000
440000
280000
100000
280000
440000
000000
000000
000000
000000
ENDCHAR
STARTCHAR Oslash
ENCODING 8360
SWIDTH 925 0
DWIDTH 18 0
BBX 18 14 -1 -3
BITMAP
000000
000000
000000
3A0000
440000
4C0000
540000
640000
440000
440000
380000
000000
000000
000000
ENDCHAR
STARTCHAR Ugrave
ENCODING 8361
SWIDTH 925 0
DWIDTH 18 0
BBX 18 14 -1 -3
BITMAP
000000
000000
000000
7F8000
7F8000
0C0000
0C0000
7F8000
6D8000
618000
7F8000
000000
000000
000000
ENDCHAR
STARTCHAR uni2B80
ENCODING 8362
SWIDTH 925 0
DWIDTH 18 0
BBX 18 14 -1 -3
BITMAP
000000
400000
600000
700000
780000
7C0000
7E0000
7E0000
7C0000
780000
700000
600000
400000
000000
ENDCHAR
STARTCHAR uni2B81
ENCODING 8363
SWIDTH 925 0
DWIDTH 18 0
BBX 18 14 -1 -3
BITMAP
000000
400000
200000
100000
080000
040000
020000
020000
040000
080000
100000
200000
400000
000000
ENDCHAR
STARTCHAR uni2B82
ENCODING 8364
SWIDTH 925 0
DWIDTH 18 0
BBX 18 14 -1 -3
BITMAP
000000
020000
060000
0E0000
1E0000
3E0000
7E0000
7E0000
3E0000
1E0000
0E0000
060000
020000
000000
ENDCHAR
STARTCHAR uni2B83
ENCODING 8365
SWIDTH 925 0
DWIDTH 18 0
BBX 18 14 -1 -3
BITMAP
000000
020000
040000
080000
100000
200000
400000
400000
200000
100000
080000
040000
020000
000000
ENDCHAR
STARTCHAR char319
ENCODING 8366
SWIDTH 925 0
DWIDTH 18 0
BBX 18 14 -1 -3
BITMAP
000000
000000
000000
550000
000000
7F0000
7F0000
7F0000
7F0000
000000
550000
000000
000000
000000
ENDCHAR
STARTCHAR char340
ENCODING 8368
SWIDTH 925 0
DWIDTH 18 0
BBX 18 14 -1 -3
BITMAP
000000
000000
000000
1E0000
210000
408000
408000
528000
738000
330000
120000
000000
000000
000000
ENDCHAR
STARTCHAR char278
ENCODING 8369
SWIDTH 925 0
DWIDTH 18 0
BBX 18 14 -1 -3
BITMAP
000000
000000
000000
080000
190000
788000
7A8000
7A8000
788000
190000
080000
000000
000000
000000
ENDCHAR
STARTCHAR char278
ENCODING 8370
SWIDTH 925 0
DWIDTH 18 0
BBX 18 14 -1 -3
BITMAP
000000
000000
000000
080000
180000
780000
7A0000
7A0000
780000
180000
080000
000000
000000
000000
ENDCHAR
STARTCHAR char278
ENCODING 8371
SWIDTH 925 0
DWIDTH 18 0
BBX 18 14 -1 -3
BITMAP
000000
000000
000000
080000
180000
780000
780000
780000
780000
180000
080000
000000
000000
000000
ENDCHAR
STARTCHAR uniE200
ENCODING 8372
SWIDTH 925 0
DWIDTH 18 0
BBX 18 14 -1 -3
BITMAP
000000
000000
040000
060000
070000
058000
048000
058000
050000
040000
3C0000
7C0000
380000
000000
ENDCHAR
STARTCHAR uniE201
ENCODING 8373
SWIDTH 925 0
DWIDTH 18 0
BBX 18 14 -1 -3
BITMAP
000000
000000
000000
1F8000
000000
1F8000
402000
5FA000
402000
5FA000
402000
7FE000
000000
000000
ENDCHAR
STARTCHAR uniE202
ENCODING 8374
SWIDTH 925 0
DWIDTH 18 0
BBX 18 14 -1 -3
BITMAP
000000
000000
000000
0FFC00
080400
0A0400
090400
0A0400
080400
080400
080400
0FFC00
000000
000000
ENDCHAR
STARTCHAR uniE203
ENCODING 8375
SWIDTH 925 0
DWIDTH 18 0
BBX 18 14 -1 -3
BITMAP
000000
000000
000000
7FE000
606000
50A000
492000
462000
402000
402000
402000
7FE000
000000
000000
ENDCHAR
STARTCHAR uniE204
ENCODING 8376
SWIDTH 925 0
DWIDTH 18 0
BBX 18 14 -1 -3
BITMAP
000000
000000
01E000
071800
060800
088C00
08BC00
0E3C00
0F1C00
061800
061800
01E000
000000
000000
ENDCHAR
STARTCHAR uniE205
ENCODING 8377
SWIDTH 925 0
DWIDTH 18 0
BBX 18 14 -1 -3
BITMAP
000000
000000
070000
0F8000
1FC000
1FC000
1FC000
0F8000
070000
0F8000
1FC000
3FE000
000000
000000
ENDCHAR
STARTCHAR U+E000
ENCODING 8384
SWIDTH 925 0
DWIDTH 18 0
BBX 18 14 -1 -3
BITMAP
000000
000000
000000
1E0000
330000
7B8000
7A8000
528000
538000
270000
1E0000
000000
000000
000000
ENDCHAR
STARTCHAR U+E001
ENCODING 8385
SWIDTH 925 0
DWIDTH 18 0
BBX 18 14 -1 -3
BITMAP
000000
000000
000000
300000
760000
6F0000
2F0000
760000
6F0000
1F8000
1F8000
000000
000000
000000
ENDCHAR
STARTCHAR char57346
ENCODING 8386
SWIDTH 925 0
DWIDTH 18 0
BBX 18 14 -1 -3
BITMAP
000000
000000
000000
3F0000
7F8000
408000
508000
488000
508000
408000
3F0000
000000
000000
000000
ENDCHAR
STARTCHAR char57347
ENCODING 8387
SWIDTH 925 0
DWIDTH 18 0
BBX 18 14 -1 -3
BITMAP
000000
000000
000000
3F0000
7F8000
408000
5E8000
408000
5E8000
408000
3F0000
000000
000000
000000
ENDCHAR
STARTCHAR char57347
ENCODING 8388
SWIDTH 925 0
DWIDTH 18 0
BBX 18 14 -1 -3
BITMAP
000000
000000
000000
3F0000
7F8000
408000
528000
408000
5E8000
408000
3F0000
000000
000000
000000
ENDCHAR
STARTCHAR char57348
ENCODING 8389
SWIDTH 925 0
DWIDTH 18 0
BBX 18 14 -1 -3
BITMAP
000000
000000
000000
7F0000
5A8000
5A8000
5E8000
408000
408000
408000
7F8000
000000
000000
000000
ENDCHAR
STARTCHAR char57349
ENCODING 8390
SWIDTH 925 0
DWIDTH 18 0
BBX 18 14 -1 -3
BITMAP
000000
000000
000000
1E0000
3B0000
738000
7F8000
700000
7C0000
3F0000
1E0000
000000
000000
000000
ENDCHAR
STARTCHAR char57350
ENCODING 8391
SWIDTH 925 0
DWIDTH 18 0
BBX 18 14 -1 -3
BITMAP
000000
000000
040000
040000
0E0000
0E0000
1F0000
1F0000
3B8000
318000
71C000
404000
000000
000000
ENDCHAR
STARTCHAR char57351
ENCODING 8392
SWIDTH 925 0
DWIDTH 18 0
BBX 18 14 -1 -3
BITMAP
000000
000000
000000
7F8000
408000
408000
408000
408000
7F8000
0C0000
7F8000
000000
000000
000000
ENDCHAR
STARTCHAR char57352
ENCODING 8393
SWIDTH 925 0
DWIDTH 18 0
BBX 18 14 -1 -3
BITMAP
000000
000000
000000
7B8000
7B8000
780000
038000
7B8000
780000
7B8000
7B8000
000000
000000
000000
ENDCHAR
STARTCHAR char57353
ENCODING 8394
SWIDTH 925 0
DWIDTH 18 0
BBX 18 14 -1 -3
BITMAP
000000
000000
000000
7C0000
7C0000
7C0000
7D8000
7D8000
018000
0F8000
0F8000
000000
000000
000000
ENDCHAR
STARTCHAR char57354
ENCODING 8395
SWIDTH 925 0
DWIDTH 18 0
BBX 18 14 -1 -3
BITMAP
000000
000000
000000
7F8000
7F8000
7F8000
7F8000
7F8000
7F8000
7F8000
7F8000
000000
000000
000000
ENDCHAR
STARTCHAR char57355
ENCODING 8396
SWIDTH 925 0
DWIDTH 18 0
BBX 18 14 -1 -3
BITMAP
000000
000000
000000
778000
778000
778000
778000
000000
6D8000
6D8000
6D8000
000000
000000
000000
ENDCHAR
STARTCHAR char57356
ENCODING 8397
SWIDTH 925 0
DWIDTH 18 0
BBX 18 14 -1 -3
BITMAP
000000
000000
000000
6D8000
6D8000
000000
6D8000
6D8000
000000
6D8000
6D8000
000000
000000
000000
ENDCHAR
STARTCHAR char57357
ENCODING 8398
SWIDTH 925 0
DWIDTH 18 0
BBX 18 14 -1 -3
BITMAP
000000
000000
000000
1F8000
1F8000
108000
108000
108000
108000
738000
738000
000000
000000
000000
ENDCHAR
STARTCHAR char57358
ENCODING 8399
SWIDTH 925 0
DWIDTH 18 0
BBX 18 14 -1 -3
BITMAP
000000
000000
000000
6D8000
408000
1E0000
5E8000
5E8000
1E0000
408000
6D8000
000000
000000
000000
ENDCHAR
STARTCHAR char57359
ENCODING 8400
SWIDTH 925 0
DWIDTH 18 0
BBX 18 14 -1 -3
BITMAP
000000
000000
000000
550000
000000
7F0000
7F0000
7F0000
7F0000
000000
550000
000000
000000
000000
ENDCHAR
STARTCHAR char57360
ENCODING 8401
SWIDTH 925 0
DWIDTH 18 0
BBX 18 14 -1 -3
BITMAP
000000
000000
000000
1C0000
1C0000
1C0000
1C0000
7F0000
3E0000
1C0000
080000
000000
000000
000000
ENDCHAR
STARTCHAR char57361
ENCODING 8402
SWIDTH 925 0
DWIDTH 18 0
BBX 18 14 -1 -3
BITMAP
000000
000000
000000
080000
1C0000
3E0000
7F0000
1C0000
1C0000
1C0000
1C0000
000000
000000
000000
ENDCHAR
STARTCHAR char57362
ENCODING 8403
SWIDTH 925 0
DWIDTH 18 0
BBX 18 14 -1 -3
BITMAP
000000
000000
000000
3F0000
7F8000
7F8000
7F8000
7F8000
3F0000
060000
0C0000
000000
000000
000000
ENDCHAR
STARTCHAR char57363
ENCODING 8404
SWIDTH 925 0
DWIDTH 18 0
BBX 18 14 -1 -3
BITMAP
000000
000000
000000
000000
7FC000
5F4000
6EC000
75C000
6AC000
5F4000
7FC000
000000
000000
000000
ENDCHAR
STARTCHAR char57364
ENCODING 8405
SWIDTH 925 0
DWIDTH 18 0
BBX 18 14 -1 -3
BITMAP
000000
000000
000000
080000
190000
788000
7A8000
7A8000
788000
190000
080000
000000
000000
000000
ENDCHAR
STARTCHAR char57365
ENCODING 8406
SWIDTH 925 0
DWIDTH 18 0
BBX 18 14 -1 -3
BITMAP
000000
000000
000000
1E0000
370000
778000
778000
708000
7F8000
3F0000
1E0000
000000
000000
000000
ENDCHAR
STARTCHAR char57366
ENCODING 8407
SWIDTH 925 0
DWIDTH 18 0
BBX 18 14 -1 -3
BITMAP
000000
000000
000000
7F8000
7F8000
0C0000
0C0000
7F8000
6D8000
618000
7F8000
000000
000000
000000
ENDCHAR
STARTCHAR char57367
ENCODING 8408
SWIDTH 925 0
DWIDTH 18 0
BBX 18 14 -1 -3
BITMAP
000000
400000
600000
700000
780000
7C0000
7E0000
7E0000
7C0000
780000
700000
600000
400000
000000
ENDCHAR
STARTCHAR char57368
ENCODING 8409
SWIDTH 925 0
DWIDTH 18 0
BBX 18 14 -1 -3
BITMAP
000000
400000
200000
100000
080000
040000
020000
020000
040000
080000
100000
200000
400000
000000
ENDCHAR
STARTCHAR char57369
ENCODING 8410
SWIDTH 925 0
DWIDTH 18 0
BBX 18 14 -1 -3
BITMAP
000000
020000
060000
0E0000
1E0000
3E0000
7E0000
7E0000
3E0000
1E0000
0E0000
060000
020000
000000
ENDCHAR
STARTCHAR char57370
ENCODING 8411
SWIDTH 925 0
DWIDTH 18 0
BBX 18 14 -1 -3
BITMAP
000000
020000
040000
080000
100000
200000
400000
400000
200000
100000
080000
040000
020000
000000
ENDCHAR
STARTCHAR char57372
ENCODING 8412
SWIDTH 925 0
DWIDTH 18 0
BBX 18 14 -1 -3
BITMAP
000000
400000
600000
700000
780000
7C0000
7C0000
7C0000
7C0000
7C0000
7C0000
7C0000
7C0000
000000
ENDCHAR
STARTCHAR char57373
ENCODING 8413
SWIDTH 925 0
DWIDTH 18 0
BBX 18 14 -1 -3
BITMAP
000000
3E0000
3E0000
3E0000
3E0000
3E0000
3E0000
3E0000
3E0000
1E0000
0E0000
060000
020000
000000
ENDCHAR
STARTCHAR char57374
ENCODING 8414
SWIDTH 925 0
DWIDTH 18 0
BBX 18 14 -1 -3
BITMAP
000000
000000
000000
000000
3F8000
404000
1F0000
208000
0E0000
000000
040000
000000
000000
000000
ENDCHAR
STARTCHAR char57375
ENCODING 8415
SWIDTH 925 0
DWIDTH 18 0
BBX 18 14 -1 -3
BITMAP
000000
000000
000000
3C0000
7E0000
420000
5A0000
5A0000
5A0000
420000
7E0000
000000
000000
000000
ENDCHAR
STARTCHAR trademark
ENCODING 8482
SWIDTH 925 0
DWIDTH 18 0
BBX 18 14 -1 -3
BITMAP
000000
000000
000000
000000
7A0000
2E0000
2A0000
2A0000
000000
000000
000000
000000
000000
000000
ENDCHAR
STARTCHAR char8592
ENCODING 8592
SWIDTH 925 0
DWIDTH 18 0
BBX 18 14 -1 -3
BITMAP
000000
000000
000000
030000
0F0000
3F0000
7F0000
3F0000
0F0000
030000
000000
000000
000000
000000
ENDCHAR
STARTCHAR char8593
ENCODING 8593
SWIDTH 925 0
DWIDTH 18 0
BBX 18 14 -1 -3
BITMAP
000000
000000
080000
1C0000
3E0000
080000
080000
080000
080000
080000
080000
000000
000000
000000
ENDCHAR
STARTCHAR char8592
ENCODING 8594
SWIDTH 925 0
DWIDTH 18 0
BBX 18 14 -1 -3
BITMAP
000000
000000
000000
600000
780000
7E0000
7F0000
7E0000
780000
600000
000000
000000
000000
000000
ENDCHAR
STARTCHAR char8593
ENCODING 8595
SWIDTH 925 0
DWIDTH 18 0
BBX 18 14 -1 -3
BITMAP
000000
000000
080000
080000
080000
080000
080000
080000
3E0000
1C0000
080000
000000
000000
000000
ENDCHAR
STARTCHAR char8593
ENCODING 8597
SWIDTH 925 0
DWIDTH 18 0
BBX 18 14 -1 -3
BITMAP
000000
000000
080000
1C0000
3E0000
080000
080000
080000
3E0000
1C0000
080000
000000
000000
000000
ENDCHAR
STARTCHAR char8593
ENCODING 8623
SWIDTH 925 0
DWIDTH 18 0
BBX 18 14 -1 -3
BITMAP
000000
000000
060000
0C0000
180000
300000
3E0000
060000
0C0000
180000
300000
000000
000000
000000
ENDCHAR
STARTCHAR char11104
ENCODING 11104
SWIDTH 925 0
DWIDTH 18 0
BBX 18 14 -1 -3
BITMAP
000000
600000
600000
640000
6E0000
640000
640000
640000
640000
680000
700000
600000
600000
000000
ENDCHAR
STARTCHAR char11105
ENCODING 11105
SWIDTH 925 0
DWIDTH 18 0
BBX 18 14 -1 -3
BITMAP
000000
400000
400000
400000
400000
400000
780000
090000
090000
0D0000
0B0000
090000
090000
000000
ENDCHAR
STARTCHAR char11106
ENCODING 11106
SWIDTH 925 0
DWIDTH 18 0
BBX 18 14 -1 -3
BITMAP
000000
000000
000000
7E0000
400000
5E0000
420000
5E0000
500000
500000
500000
700000
000000
000000
ENDCHAR
STARTCHAR char11107
ENCODING 11107
SWIDTH 925 0
DWIDTH 18 0
BBX 18 14 -1 -3
BITMAP
000000
000000
000000
7E0000
020000
6E0000
280000
280000
280000
280000
280000
380000
000000
000000
ENDCHAR
STARTCHAR char11108
ENCODING 11108
SWIDTH 925 0
DWIDTH 18 0
BBX 18 14 -1 -3
BITMAP
000000
000000
180000
240000
240000
240000
7E0000
660000
660000
7E0000
7E0000
3C0000
000000
000000
ENDCHAR
STARTCHAR uni2B80
ENCODING 11136
SWIDTH 925 0
DWIDTH 18 0
BBX 18 14 -1 -3
BITMAP
000000
400000
600000
700000
780000
7C0000
7E0000
7C0000
780000
700000
600000
400000
000000
000000
ENDCHAR
STARTCHAR uni2B81
ENCODING 11137
SWIDTH 925 0
DWIDTH 18 0
BBX 18 14 -1 -3
BITMAP
000000
400000
200000
100000
080000
040000
020000
040000
080000
100000
200000
400000
000000
000000
ENDCHAR
STARTCHAR uni2B82
ENCODING 11138
SWIDTH 925 0
DWIDTH 18 0
BBX 18 14 -1 -3
BITMAP
010000
030000
070000
0F0000
1F0000
3F0000
7F0000
3F0000
1F0000
0F0000
070000
030000
010000
000000
ENDCHAR
STARTCHAR uni2B83
ENCODING 11139
SWIDTH 925 0
DWIDTH 18 0
BBX 18 14 -1 -3
BITMAP
010000
020000
040000
080000
100000
200000
400000
200000
100000
080000
040000
020000
010000
000000
ENDCHAR
STARTCHAR uniE200
ENCODING 11152
SWIDTH 925 0
DWIDTH 18 0
BBX 18 14 -1 -3
BITMAP
000000
000000
040000
060000
070000
058000
048000
058000
050000
040000
3C0000
7C0000
380000
000000
ENDCHAR
STARTCHAR uniE201
ENCODING 11153
SWIDTH 925 0
DWIDTH 18 0
BBX 18 14 -1 -3
BITMAP
000000
000000
000000
1F8000
000000
1F8000
402000
5FA000
402000
5FA000
402000
7FE000
000000
000000
ENDCHAR
STARTCHAR uniE202
ENCODING 11154
SWIDTH 925 0
DWIDTH 18 0
BBX 18 14 -1 -3
BITMAP
000000
000000
000000
7FE000
402000
502000
482000
502000
402000
402000
402000
7FE000
000000
000000
ENDCHAR
STARTCHAR uniE203
ENCODING 11155
SWIDTH 925 0
DWIDTH 18 0
BBX 18 14 -1 -3
BITMAP
000000
000000
000000
7FE000
606000
50A000
492000
462000
402000
402000
402000
7FE000
000000
000000
ENDCHAR
STARTCHAR uniE204
ENCODING 11156
SWIDTH 925 0
DWIDTH 18 0
BBX 18 14 -1 -3
BITMAP
000000
000000
0F0000
38C000
304000
446000
45E000
71E000
78E000
30C000
30C000
0F0000
000000
000000
ENDCHAR
STARTCHAR uniE205
ENCODING 11157
SWIDTH 925 0
DWIDTH 18 0
BBX 18 14 -1 -3
BITMAP
000000
000000
070000
0F8000
1FC000
1FC000
1FC000
0F8000
070000
0F8000
1FC000
3FE000
000000
000000
ENDCHAR
STARTCHAR uniE220
ENCODING 11168
SWIDTH 925 0
DWIDTH 18 0
BBX 18 14 -1 -3
BITMAP
000000
000000
7FBFC0
7FBFC0
7FBFC0
7F8000
7FBFC0
7FBFC0
7FBFC0
7F8000
7FBFC0
7FBFC0
7FBFC0
000000
ENDCHAR
STARTCHAR uniE221
ENCODING 11169
SWIDTH 925 0
DWIDTH 18 0
BBX 18 14 -1 -3
BITMAP
000000
000000
7FBFC0
7FBFC0
7FBFC0
003FC0
7FBFC0
7FBFC0
7FBFC0
003FC0
7FBFC0
7FBFC0
7FBFC0
000000
ENDCHAR
STARTCHAR uniE222
ENCODING 11170
SWIDTH 925 0
DWIDTH 18 0
BBX 18 14 -1 -3
BITMAP
000000
000000
7FFFC0
7FFFC0
7FFFC0
7FFFC0
7FFFC0
000000
7DF7C0
7DF7C0
7DF7C0
7DF7C0
7DF7C0
000000
ENDCHAR
STARTCHAR uniE223
ENCODING 11171
SWIDTH 925 0
DWIDTH 18 0
BBX 18 14 -1 -3
BITMAP
000000
000000
7DF7C0
7DF7C0
7DF7C0
7DF000
7DF7C0
7DF7C0
7DF7C0
7DF000
7DF7C0
7DF7C0
7DF7C0
000000
ENDCHAR
STARTCHAR uniE224
ENCODING 11172
SWIDTH 925 0
DWIDTH 18 0
BBX 18 14 -1 -3
BITMAP
000000
000000
7FBFC0
7FBFC0
7FBFC0
7FBFC0
7FBFC0
7F8000
7FBDC0
7FBDC0
7FBC00
7FBD40
7FBD40
000000
ENDCHAR
ENDFONT
